<svg id="SvgjsSvg1102" width="288" height="288" xmlns="http://www.w3.org/2000/svg" version="1.1" xmlns:xlink="http://www.w3.org/1999/xlink" xmlns:svgjs="http://svgjs.com/svgjs"><defs id="SvgjsDefs1103"></defs><g id="SvgjsG1104"><svg xmlns="http://www.w3.org/2000/svg" viewBox="0 0 111.176 140" width="288" height="288"><g transform="translate(149.75 -891.861)" fill="#000000" class="color000 svgShape"><g transform="matrix(.77206 0 0 .77206 -21.463 219.248)" fill="#000000" class="color000 svgShape"><path fill="#aa0000" d="m -94.461486,871.19439 a 57.771625,78.602564 0 0 0 -57.771654,78.6026 57.771625,78.602564 0 0 0 57.771654,78.60231 57.771625,78.602564 0 0 0 57.771625,-78.60231 57.771625,78.602564 0 0 0 -57.771625,-78.6026 z m 0,1.52303 a 56.272873,77.079358 0 0 1 56.27293,77.07957 56.272873,77.079358 0 0 1 -56.27293,77.07921 56.272873,77.079358 0 0 1 -56.272694,-77.07921 56.272873,77.079358 0 0 1 56.272694,-77.07957 z" class="colorfff svgShape"></path><path fill="#aa0000" d="m -94.461486,873.46759 a 55.399868,76.329276 0 0 0 -55.399724,76.3294 55.399868,76.329276 0 0 0 55.399724,76.32911 55.399868,76.329276 0 0 0 55.399973,-76.32911 55.399868,76.329276 0 0 0 -55.399973,-76.3294 z m 0,1.43931 a 53.966147,74.890016 0 0 1 53.966338,74.89009 53.966147,74.890016 0 0 1 -53.966338,74.88981 53.966147,74.890016 0 0 1 -53.966094,-74.88981 53.966147,74.890016 0 0 1 53.966094,-74.89009 z" class="colorfff svgShape"></path><path fill="#aa0000" d="m -94.461486,887.45666 a 42.478749,62.340162 0 0 0 -42.478724,62.34033 42.478749,62.340162 0 0 0 42.478724,62.34011 42.478749,62.340162 0 0 0 42.478743,-62.34011 42.478749,62.340162 0 0 0 -42.478743,-62.34033 z m 0,1.59399 a 41.028884,60.746236 0 0 1 41.029012,60.74634 41.028884,60.746236 0 0 1 -41.029012,60.74611 41.028884,60.746236 0 0 1 -41.028734,-60.74611 41.028884,60.746236 0 0 1 41.028734,-60.74634 z" class="colorfff svgShape"></path><path fill="#aa0000" d="m -92.518926,899.27869 c -1.073196,0.15575 -4.301147,-0.64282 -7.559314,3.34824 -3.25819,3.9911 -4.70304,8.4956 -7.03002,13.14736 -2.4698,4.70958 -6.73365,10.07005 -7.58612,12.57611 -1.39944,0.8704 -2.779,1.98107 -3.79281,3.32838 -1.01377,1.34731 -1.76141,2.93543 -1.98642,4.97421 -0.0477,1.35407 0.10133,2.79399 1.54256,4.79294 0.75535,0.76747 1.23887,1.19899 2.5714,0.60608 0.27101,0.94858 0.23645,3.56315 0.48446,3.75789 0.83343,1.03577 0.57746,3.3687 0.48697,4.12421 -0.0906,0.75555 -0.45715,4.9948 -0.45715,4.9948 -0.0945,1.43398 -0.29381,2.86791 -0.65713,4.30184 -0.12396,0.69819 -0.41781,1.41088 0.82858,1.99227 0.4139,0.29017 0.72972,0.28977 1.52828,0.37533 0.20937,-0.12681 0.40643,-0.14401 0.61427,-0.33202 0.47623,-0.1294 0.73022,-0.25801 0.82853,-0.0434 0.0259,0.49921 -0.14186,0.93398 -0.34282,1.35706 0.0794,0.64319 0.16992,1.28051 1.14285,1.47228 0.44844,0.20774 0.71917,0.61473 0.48568,1.58802 0.0938,0.46207 0.25574,0.89273 1.65715,0.75071 0.71257,0.4402 1.10568,1.13863 1.05685,2.19435 -0.29063,0.46072 -0.29347,0.99396 -0.28569,1.53004 0.41028,0.82501 0.5992,1.61817 2.28564,2.62746 1.91089,0.71871 4.62946,0.93767 9.170809,0.0289 0.126118,0.91429 0.02592,1.82846 -0.114451,2.74274 -0.372348,3.42803 -1.778225,7.37366 -2.599738,8.86378 -1.20496,1.93411 -2.7371,3.53754 -4.31397,5.09584 -1.95458,1.69686 -2.71404,3.49435 -3.39997,5.29798 -0.37867,2.03484 -0.12884,2.44837 -0.11795,3.1949 2.61753,2.43141 5.97556,4.11471 10.262621,4.85891 3.695295,0.2404 7.398915,0.5383 10.989894,0.041 2.811018,-0.603 5.144925,-1.9431 6.908838,-4.16473 2.222703,-2.35966 4.107006,-5.20776 5.575684,-8.656 1.207356,-2.84216 2.180469,-5.78968 2.424218,-9.06462 -0.154287,-2.14607 -0.187815,-4.31924 -2.222186,-6.04299 -1.063008,-0.80401 -1.796196,-1.94127 -2.545344,-3.06236 -1.260405,-2.39388 -2.346885,-4.85348 -2.752533,-7.57125 1.433345,0.36078 3.050202,0.29956 4.409109,0.0586 2.780268,-0.27864 4.778085,-1.69612 6.222117,-3.91979 1.482027,-1.24225 1.899051,-4.03913 2.020155,-7.26804 -0.07982,-2.72264 -1.154736,-4.89674 -2.909172,-6.69626 -2.022889,-1.3738 -3.766812,-1.43274 -5.3331,-0.65326 0.06646,-0.72908 0.002,-1.65588 -0.08084,-2.61303 -0.160662,-2.22188 0.685008,-4.75683 2.505088,-7.59467 1.147843,-1.9868 2.441539,-3.9012 3.075427,-6.25902 0.685728,-2.36106 1.208448,-4.84261 -1.863463,-9.09324 0.13968,-2.65242 -0.152016,-5.25891 -1.454316,-7.75788 -1.699408,-2.8772 -4.413956,-5.96004 -7.757539,-7.67641 -1.349745,-0.61814 -2.6735,-1.3062 -3.797912,-2.53155 -0.828576,-0.68509 -5.216862,-2.77384 -8.117508,-3.02137 z m -2.344608,1.38513 c 0.06639,-2.3e-4 0.133086,8e-4 0.199341,0.006 2.55324,-0.0235 5.028903,0.57118 7.47463,1.63315 1.011957,0.62805 2.017593,1.29154 2.949438,2.3684 0.503031,0.48515 1.063707,0.91216 1.939515,1.02061 1.992909,0.71638 3.462189,2.17347 4.929037,3.63412 3.017566,2.35969 3.954059,4.4114 4.808102,6.45111 0.358376,1.2833 0.515624,1.82499 0.21456,2.38644 -0.240768,0.44906 -0.416488,1.42433 -0.25488,2.06417 1.485093,1.60579 2.8022,4.46142 2.666552,5.63465 0.120748,2.89185 -0.650592,4.8066 -1.818083,6.28791 -0.594823,1.00272 -1.004503,2.17649 -2.787943,2.08249 -2.356992,0.19704 -3.421796,0.0991 -4.12114,-0.0816 0.33008,-0.95938 0.627167,-1.97404 0.323183,-4.00129 -0.307551,-0.29315 0.137437,-0.77653 0.444384,-1.22503 -1.620799,0.39694 -3.110271,0.0533 -4.92898,-0.36737 -0.874307,-0.20903 -1.603296,0.27998 -2.262708,1.10233 l -1.212269,1.51069 c -0.610879,-2.77466 -1.853491,-5.30971 -3.757323,-7.59442 -1.196352,-2.46096 -0.871867,-5.07571 -1.09105,-7.63541 -0.006,-7.44954 0.08337,-6.91268 -0.323243,-8.41114 -0.242496,-0.46132 -0.484839,-0.69705 -0.727246,-0.73495 0.11733,0.72588 0.205708,0.41929 0.10095,1.19408 0.04668,1.21377 0.51708,-2.08407 0.66684,13.09661 0.006,0.52864 0.21168,1.3505 1.050488,3.10308 1.368758,2.1493 2.898871,4.22389 3.393839,6.77797 l 0.242208,1.46998 c -5.431151,-1.07572 -4.738799,-4.06355 -5.535103,-4.89972 -1.016793,-3.93276 -2.391856,-6.84371 -4.323426,-8.16617 -0.535068,-0.14991 -0.968333,-0.15614 -0.969609,0.44908 1.85236,2.43953 3.588892,5.06798 4.484891,9.06462 0.04245,1.71138 -0.496435,3.21196 -2.545375,4.16469 -2.060715,0.84025 -4.148139,0.54786 -6.262656,-0.89839 -1.43584,-1.21094 -2.30559,-2.73748 -2.1819,-4.81797 0.33286,-1.99055 0.98837,-3.41038 2.1819,-3.8788 0.85492,-0.15937 1.581,-0.25283 1.898931,0.51017 0.420017,0.8244 0.147029,1.09684 -0.121081,1.32714 -0.62806,0.44952 -0.63796,0.87068 -0.0808,1.2658 1.174825,0.2934 1.513801,-0.0914 1.898932,-0.89843 0.606052,-1.21814 0.646508,-2.55861 -0.242496,-3.47048 -0.895781,-0.82901 -2.982556,-1.41537 -3.959666,-0.69421 -1.26317,0.67317 -2.12988,1.91385 -2.74738,3.51141 -1.04599,3.10623 -0.50059,4.77369 0.48496,6.04303 0.89481,1.19614 1.62176,2.41536 4.4443,3.34826 2.074063,0.63249 4.148019,1.05454 6.222119,-0.77598 1.047381,-0.71874 1.74046,-1.52682 2.141554,-2.40887 0.369989,0.15352 0.75212,0.29241 0.807884,0.81646 -0.579924,1.90744 -1.976937,2.75978 -3.514994,3.42999 -2.984788,1.58002 -5.275765,0.90177 -6.505013,0.40807 -2.48584,-1.06149 -3.82758,-2.61514 -5.1313,-4.45034 -0.5302,-1.42767 -0.90162,-2.87439 -0.52525,-4.40985 l 0.40411,-1.46997 c -0.11583,-0.0864 -0.22377,-0.19141 -0.44438,-0.0406 -0.6108,1.44837 -1.55751,2.33508 -2.86858,2.61306 -1.2961,0.11774 -2.53786,0.0715 -3.75763,-0.041 0.65041,-1.99431 1.74393,-3.82584 3.23233,-5.51219 1.60885,-2.18154 2.70335,-4.12253 3.62648,-5.53412 2.09664,-4.20389 4.265,-8.64319 5.94918,-11.4923 1.751799,-3.60181 3.760224,-4.85518 5.820576,-4.86206 z M -108.3261,928.6747 c 0.40879,3.3966 1.2067,4.21855 2.78774,6.06335 1.58098,1.84482 6.388417,3.80854 9.717194,2.49058 0.641073,0.46001 1.095993,1.29614 1.414004,2.40912 -0.474896,0.65744 -0.858314,1.5612 -1.171658,2.654 0.326016,1.15096 0.346691,1.88331 -0.08079,2.00076 -0.730141,-0.0316 -1.66951,-0.69128 -2.181597,-1.73525 -0.51219,-1.04394 -1.681332,-1.51135 -2.727273,-1.79658 -1.04594,-0.28517 -2.62309,-0.82656 -4.10099,-1.85794 -0.55215,-0.57164 -1.05068,-0.92547 -1.49512,-1.0616 -2.94849,-0.74144 -4.41658,-1.31187 -5.49484,-1.8373 0.27964,1.76864 1.49659,1.87955 3.01017,2.26604 1.51359,0.38648 2.868,0.40491 3.29284,1.24539 -0.22061,0.39647 -0.82804,0.14568 -1.89897,0.0616 -1.07096,-0.0842 -2.49152,-0.57144 -3.79793,-1.2454 -2.23403,-1.68265 -2.48502,-3.21441 -2.74739,-4.36886 0.61724,-0.12071 1.26822,0.13494 1.93925,0.61227 0.71922,-0.0351 0.62697,-0.60022 0.44438,-1.22481 0.35934,0.45468 0.69753,0.80167 1.21225,2.04151 0.15984,-0.36512 0.30956,-0.24559 0.34333,-1.4086 0.0339,-1.16305 -0.83966,-1.93477 -1.5959,-2.55196 -1.04088,-0.47462 -2.04114,-0.75442 -2.86856,-0.20412 0.0502,-0.20413 0.0554,-0.40836 -0.12107,-0.61252 -0.19584,-0.18215 -0.38245,-0.31101 -0.61632,-0.37766 1.03502,-0.56983 2.10677,-0.96006 3.44434,-0.76567 1.29744,0.15715 1.84638,-0.11671 2.2224,-0.48978 0.25171,-0.30664 0.65746,-0.27177 1.0706,-0.30628 z m 25.004272,0.67231 c 0.232992,-10e-4 0.486371,0.0327 0.762471,0.10776 0.959991,0.5812 2.1298,0.73839 3.314247,0.86599 0.626832,2.1679 0.345697,2.92438 0,3.58025 -0.561888,0.8137 -1.123839,1.95447 -1.685711,2.13634 -0.180608,0.72675 0.134556,0.75308 0.714287,0.40422 0.759409,-0.55508 1.907424,-0.94169 4.256844,-0.80817 1.158727,0.10272 2.161913,-0.0672 2.942784,-0.34647 -1.875991,2.983 -2.213753,4.00258 -2.628493,5.1969 -1.258704,0.39766 -2.780351,-0.26789 -4.256862,-0.75072 -0.752321,-0.19604 -1.504784,0.24999 -2.257125,0.89506 -0.580896,0.52714 -1.161639,0.99673 -1.742535,1.06805 0.296487,-1.97417 -0.569315,-2.77379 -1.942848,-3.06024 -0.923769,-0.0914 -1.847385,-0.16443 -2.77112,-0.0289 -0.906564,-0.69523 -0.596752,-1.14469 -0.400032,-1.61694 0.403563,-0.47881 0.659307,-0.65932 0.914019,-0.83734 0.873216,-0.5047 1.385418,-1.30125 1.885689,-2.10746 0.413339,-0.73046 0.615153,-1.42538 0.571451,-2.07887 0.403065,-1.53525 1.064601,-2.60943 2.322934,-2.61947 z m -31.847022,0.93812 c -0.12732,0.30086 -0.41399,0.37316 -0.18782,0.96107 -0.77492,0.57102 -1.80535,1.31557 -2.25736,2.48154 -0.14703,0.60122 0.0943,0.55579 0.39999,0.40423 0.94375,-0.62752 1.35832,-1.10973 1.85713,-1.32814 -0.20908,0.36308 -1.33415,1.3182 -1.94284,1.99224 -0.60869,0.67402 -0.78904,0.83947 -0.94284,2.04973 -0.20765,1.29775 -0.005,1.28112 0.20678,1.21962 0.4166,-0.15171 0.4032,-0.76731 0.65031,-1.24848 0.60455,-1.4554 1.40025,-2.44699 2.54253,-2.59833 1.01196,2.28955 2.18312,4.4958 4.62853,6.03423 1.4388,0.95769 3.44346,1.16433 5.74224,0.98141 1.1686,-0.0497 2.07721,0.41544 2.59996,1.61692 l 1.14283,1.81898 1.571415,0.54861 c 1.769048,2.81285 2.92537,6.63125 6.656545,9.03681 0.933089,0.53922 2.026172,1.02331 3.971385,1.21265 0.203235,0.16804 0.270432,0.54259 0.314024,0.95284 0.100203,-0.006 0.28656,-0.2399 0.628569,-0.89507 0.725791,-0.0478 1.7059,-0.33741 1.542847,0.46197 -0.0996,0.49243 -0.434442,0.9425 -1.28574,1.29926 -0.741342,0.14991 -1.714356,0.0563 -1.828269,0.86597 -0.03441,0.58194 -0.02304,1.13486 1.314009,0.8373 0.875367,-0.26138 1.57983,-0.76269 1.971375,-1.70327 0.196673,-0.80356 0.189881,-1.91633 0.88572,-1.96337 0.649638,0.0261 0.963225,0.22825 0.885692,0.63521 -0.03804,0.24868 -0.05532,0.4974 0.118831,0.74608 1.218771,1.58928 1.675963,3.29693 6.222342,4.36887 4.144034,0.35207 4.927682,-0.61794 6.42417,-2.00073 1.46664,-1.25258 1.772312,-2.84015 2.1413,-4.40963 -0.22896,-0.16782 -0.457776,-0.33863 -0.686736,-0.0816 -0.444116,2.20838 -1.204868,3.14527 -2.545632,4.16471 -1.340742,1.01939 -3.68574,1.53656 -6.343279,0.61248 -2.414895,-0.7768 -3.440527,-1.80644 -3.999897,-3.06235 0.60962,-0.0295 0.530784,-0.29739 0.686682,-0.42868 -1.555638,-1.74772 -3.392064,-1.88591 -5.373654,-1.85794 -3.213595,0.18557 -5.976379,-1.04557 -7.817988,-3.65427 -1.339356,-1.61266 -1.913314,-3.032 -2.404066,-4.43023 0.465169,-0.56975 0.976582,-0.34354 1.49488,0 0.690956,2.1384 2.375258,3.45509 3.515298,4.08323 1.139978,0.62811 1.636568,0.74351 2.585679,0.93916 0.755561,-0.0786 0.869109,-0.44107 0.767808,-0.89842 -0.764581,-0.8147 -2.205928,-1.05968 -3.596119,-1.3475 -1.22738,-0.74933 -2.085272,-1.80966 -2.666532,-3.10311 0.433168,-0.19081 0.886707,-0.25773 1.3737,-0.12253 1.237687,0.77683 2.570263,1.36451 3.393807,0.63289 0.823543,-0.7316 0.742387,-0.82234 0.929361,-1.12296 -1.94976,0.43719 -3.36954,-0.057 -4.080809,-1.79632 -0.372823,-1.56727 0.164766,-2.7522 1.131386,-3.94042 0.930528,-0.37622 1.478971,-0.84793 1.777761,-1.00025 -0.762774,-1.17432 -1.257164,-2.22821 -1.53519,-3.18483 0.570619,-0.45054 0.996283,-0.98437 1.292787,-1.59238 0.372019,-0.7072 0.934696,-1.15935 1.939299,-1.0209 0.876672,0.44889 1.138176,1.02233 1.212255,1.63342 -0.0288,0.56486 -0.4248,0.7063 -0.848495,0.81669 0.239616,0.0515 0.537834,0.13298 0.727277,0.38773 -0.683229,0.6586 -1.446215,1.18218 -1.818296,2.10284 -0.250848,0.84292 -0.416373,1.63647 0.444597,1.83731 l 0.72729,0.28589 c -1.019413,1.34524 -1.97856,2.71785 -0.889012,5.02216 0.722836,0.99052 1.67451,1.43199 2.828253,1.3882 -0.285408,2.43485 0.374611,4.71711 2.747443,6.2472 2.372816,1.53007 4.988496,1.13066 6.707024,0.22459 1.7186,-0.90614 2.241278,-2.01189 2.666552,-3.12344 -0.188846,-0.35139 -0.293246,-0.30321 -0.404064,-0.28592 -0.938426,1.24561 -1.927417,2.46181 -4.605817,2.695 -4.42281,-0.24193 -4.967919,-1.81152 -5.919273,-3.20544 -0.700977,-1.14323 -0.665992,-2.29338 -0.02061,-3.49105 0.169706,-0.78064 -0.02304,-0.9322 -0.44443,-0.694 -0.125507,0.26032 -0.350224,0.3815 -0.929315,0.33617 -1.135813,-0.69372 -2.026929,-1.51168 -1.777765,-2.90849 0.353014,-1.80699 1.271232,-1.97158 2.222149,-2.04146 1.022171,0.046 1.997991,0.25994 2.383896,2.61301 0.04017,0.3675 0.06624,0.73488 -0.08079,1.10234 0.207072,0.17328 0.44073,0.18658 0.686955,0.12265 0.782997,-1.43877 1.9209,-2.11494 3.312978,-2.24568 1.312752,0.0116 2.423712,0.4362 3.595857,0.7347 l 0.969903,0.16341 -0.323239,3.96053 1.009934,1.06157 c 1.595746,-0.55967 3.178368,-0.61708 4.727273,0.61254 0.777332,0.76567 1.550324,1.59139 2.222145,3.79732 0.590195,2.19737 0.606899,3.5464 0.282816,4.00129 -0.1584,0.47897 0.0062,0.7209 -0.687002,1.59239 0.05061,0.23987 0.08084,0.49029 0.44465,0.57182 -0.432122,1.38114 -1.71796,2.54665 -2.990016,3.71559 -2.148912,1.52639 -3.387105,1.57904 -4.969584,1.63316 -3.014001,-0.0369 -4.78757,-0.88172 -6.14124,-2.00079 -0.963618,-0.96713 -1.256271,-1.85893 -1.777747,-2.77644 0.05016,1.21868 -0.146274,2.42091 0.99028,3.71277 0.689532,0.7922 1.394087,1.56581 2.45685,1.90535 1.145328,4.38927 2.471184,8.81697 5.771088,12.15513 -4.515408,0.5533 -8.606946,1.65193 -12.056458,3.43565 -4.078262,2.29381 -8.090057,4.83974 -11.742204,8.74832 -1.138589,1.11737 -2.241729,2.73567 -3.428269,3.17579 -2.8272,1.10233 -3.67085,2.042 -3.67085,2.042 -0.57912,0.73955 -0.55652,2.13988 -2.16424,4.36604 0.18083,-0.50745 0.72548,-1.49692 0.66399,-1.84634 0.0765,-2.54955 1.08611,-3.75071 2.17143,-5.11028 2.41133,-2.91039 4.99423,-3.65182 7.113642,-10.24949 0.76519,-1.92438 1.255919,-4.68084 1.428567,-8.4016 2.799983,-1.00065 5.185154,-2.5496 7.285342,-4.47506 0.643104,-0.60254 0.769171,-0.99632 0.885463,-1.3859 -0.459087,0.45232 -0.199539,0.0756 -1.527279,1.37741 -1.327755,1.30164 -5.177436,3.62349 -9.928929,4.39697 -2.716266,0.16038 -6.303206,0.20751 -7.313926,-1.24155 -1.01075,-1.44889 -0.71581,-1.59036 -0.78571,-3.00255 -0.0696,-1.4122 -0.89854,-2.04052 -1.67138,-2.54085 -0.55105,0.10528 -0.81056,-0.11502 -0.82833,-0.60631 0.0855,-0.35081 0.3242,-0.58225 0.82833,-0.60637 0.87652,-0.058 1.54939,-0.0116 2.28567,0 0.10944,-0.0514 0.21254,-0.30276 0.31427,-0.60637 -0.29835,-0.23573 -0.55323,-0.45291 -1.19997,-0.83704 -0.39097,0.32458 -0.43791,0.36393 -0.45718,0.51947 -0.64634,-0.0207 -1.06509,-0.19301 -1.42824,-0.40396 -0.26697,0.23082 -0.59027,0.40425 -0.97142,0.51947 -1.01038,-0.6945 -0.84632,-1.06844 -1.02861,-1.53004 0.1938,-0.0652 0.32963,-0.16603 0.42862,-0.2887 -0.0769,-0.80039 -0.15264,-0.79086 -0.22839,-1.03946 0.6873,4.2e-4 1.19838,0.0464 1.72851,-0.56301 0.53014,-0.60943 0.30766,-1.63993 0.0427,-2.06444 -0.20678,-0.33442 -0.96589,-0.93645 -1.27369,-0.64526 0.26697,0.23908 0.48767,0.53138 0.71654,0.96285 0.15247,0.33393 0.0152,0.69584 -0.32858,0.95283 -0.59922,0.16744 -1.19275,0.36382 -1.82852,0.34646 -0.28137,0.28004 -0.39319,0.48869 -0.59999,0.57745 -0.90287,0.2474 -1.68695,0.16562 -2.28542,-0.43305 0.37246,-0.79478 0.62721,-2.02501 0.77118,-3.66666 0.58726,-6.54715 1.12862,-5.42839 0.6571,-9.50597 -0.76075,-1.19012 -1.07259,-2.39953 -0.97137,-3.86181 -0.0719,-1.82795 -0.31815,-3.1604 -0.17116,-5.51453 0.15615,-1.17052 -0.29453,-1.01337 -0.45588,-1.03579 -0.18843,0.37424 -0.23242,0.69959 -0.31557,1.52666 -0.18597,1.2607 -0.0979,2.5214 -0.11451,3.78213 -1.25419,-0.60464 -2.64557,-2.02345 -2.75709,-4.08532 -0.11162,-2.06187 0.35788,-3.81493 1.22857,-4.83598 0.8707,-1.02108 1.62474,-1.90382 2.65965,-2.17219 z m 21.510141,5.69448 c 0.436335,1.04045 0.726971,1.56556 1.014276,2.07884 -0.328957,0.23343 -0.589705,0.52231 -0.728565,0.90953 -0.288955,-0.89328 -0.734356,-1.58888 -1.171144,-2.2954 0.163341,-0.52448 0.539908,-0.5739 0.885433,-0.69297 z m 19.37269,40.77356 c 1.435042,2.65344 1.14768,4.23825 0.846412,7.23769 -0.301248,2.99937 -2.745792,7.24421 -4.240511,10.11537 -1.494639,2.87118 -2.843406,4.51407 -5.090736,6.53287 -2.760222,2.0664 -6.301819,1.9567 -10.307764,1.9172 -4.005864,-0.039 -10.022012,-2.045 -11.510282,-3.01955 -1.48829,-0.97463 -1.76954,-1.65358 -2.0201,-2.40916 0.55407,-0.42634 0.83357,-0.9281 0.96957,-1.46969 0.17259,-0.84344 0.51452,-1.42298 0.83677,-2.07758 2.06064,-0.92621 2.61816,-1.08143 4.4563,-2.20981 3.396888,-3.96618 7.06913,-7.26192 11.272551,-9.84011 4.203405,-2.5782 8.923101,-4.54942 14.78779,-4.77723 z" class="colorfff svgShape"></path><path fill="#aa0000" d="M-102.83123 937.97391c-.28282-.55188.001-.52613.38383-.45935.7417.50127 2.00945.97463 3.898952 1.44953.6128.22715 1.201173.39209 2.363615 2.02108.2448.77809-.07836.68189-.383841.61247-.828288-.81658-1.319241-1.80366-3.050483-2.16403-1.306063-.29198-2.842573-.96001-3.212073-1.4597zM-75.559699 955.5837c-.546644.35218-.51626.56681-.04032.67426 0 0 2.086478.21839 3.814066-2.36749 1.010448-1.94272.140303-4.05228.140303-4.05228-.619737-.24948-.798192-.0769-.71424.34649 0 0 1.006455 1.76035-.228384 3.6667-1.396617 1.69196-2.971235 1.73232-2.971235 1.73232zM-74.102645 957.44594c-.803932.26477-.701013.68229-.614242 1.09712.193782.48593.66853.49051 1.357056.1301.85791-.54134 1.69274-.86441 2.428416-2.3242.735696-1.45974 1.079053-2.66579.828534-3.72442-.378596 1.20778-.814916 2.62909-1.642772 3.62341-.827794.99426-1.571308 1.23212-2.356992 1.19816zM-108.42635 944.52838c-.62256.006-1.16394.0587-2.01475.1136-1.36132.0889-2.20157.96923-2.3112 1.66616-.10956.69688.57265 1.35288 1.02346 1.36422.74122-.10984.70921.24741.77141.60635.12612.74955.3636.76956.82858.92392.4395.25311.65208.70264.82828 1.18383-.17485.125-.4066.52537-.37143 1.09717.0351.57187.30475.46146.58572.90924.0992.15172.35374.5431.37065 1.94404.72674-.26602.9732-.57649 1.01504-1.26553.14809-.67832-.35466-1.09349-.0859-1.38562.46725-.11735.68018-.25545.78566-.49087-.33387-.2171-.7234.20067-1.58876.10037 1.16312-.5674.5123-.49263 2.91733-1.34152.63628-.25621 1.32307-.75832 1.27575-1.04307-.0474-.28476-1.36421-1.33402-2.78286-1.84737-1.41869-.51336-1.92862-.34745-2.96959-.40782-1.57095-.64125-.11582-1.05174.47597-1.06135.59167-.0107 5.55314-.0925 6.17187.20207.25257-.18294.43946-.36573.37144-.54859-1.30067-.27754-2.6272-.53735-4.0043-.65945-.51643-.046-.91905-.0623-1.29259-.0598zm-1.02651 3.01443c1.79505.14506 2.24412.40797 2.74587.66614-1.54908.0697-1.85477-.18174-3.22136-.19705-.0546-.24763.0963-.40745.47549-.46892zm1.94025 1.62721c.44449-.006.76402.0387.96786.19282-.13324.32053-.0942.64707-1.30992.73421-.30331-.0714-.33733-.70367-.1446-.9072.17629-.0107.33834-.0181.48648-.0207zm-1.52035.10442c.0491-.006.10876.007.17506.00076-.0462.18214.005.34933.0913.51018.0427.0805.21859.25647.27043.33462.0518.0781.0289.11411.0383.19483-.088-.0972-.18164-.14794-.26236-.23288-.0806-.0848-.14763-.2036-.21168-.27843-.12793-.14974-.21284-.2813-.21773-.40497.0288-.0924.0671-.11864.11646-.12408zM-74.427509 978.38631c.142772-.5634.386722-.92254.84851-1.16368.291229.19886.63576-.11048.626214 1.00038-.451378.33892-.973542.17668-1.474724.16339zM-77.72042 978.75378c.390654-1.44088.978749-1.24553 1.575773-1.22492.597024.0207 1.142496-.35559.747442.57162-.23904.61914-.414288.8281-.707061.79622-.687456.0961-1.14414.0333-1.616154-.14264zM-76.058947 980.41339c.21456-.14929.64117-.68006.687868-.8768.04668-.19664.425252-.50079.963792-.45618.538477.0446.514326.12033.464626.49001-.04978.36986-.273312.72581-.646478.77577-.373042.05-.860996-.0207-1.054964.2544-.193784.27587-.245376.72304-.61488.92552-.369504.20231-1.057103.16038-1.380606.20828-.323489.0479-.25056-.4236-.25776-.4636-.0063-.0399.230976-.65617.63864-.82325.4077-.16743.985182.11502 1.199742-.0344zM-74.981127 981.89017c.206496-.18859.715453-.2176.864205-.29298.148941-.0754.518051-.22822.757091-.43308.23904-.20491-.06996-1.23095.442861-1.18375.513011.0471.481763 1.68622.242784 2.15097-.23904.46471-.743081.39247-1.114251.47637-.37117.084-.760732.13661-.999936.0574-.405442-.10347-.386722-.58226-.192754-.77532zM-81.459317 979.44628c.10528-.12434.315711-.43175.51424-.57749.19872-.14553.423983-.22406.642816-.28869.21888-.0646.41096-.0864.657119-.10091.24624-.0116.666817-.075.814194.0289.147517.10346.125115.057.10017.24533-.02592.18839-.317232.52307-.528514.69288-.211104.16985-.449023.23314-.685694.31763-.236736.0845-.509472.13237-.72853.18778-.219168.0552-.420415.17791-.585679.14431-.164993-.0337-.279648-.14749-.328577-.24531-.04896-.0979-.02592-.17449 0-.24531.02592-.0707.02304-.0346.128798-.15875zM-80.387957 981.04865c-.08768-.16743-.000801-.30428.08577-.44752.08655-.14325.176511-.26565.31427-.38979.137604-.12409.35605-.24403.514224-.33202.15824-.0881.259488-.15977.428544-.20233.169105-.0425.399201-.038.571425-.0289.172175.007.368864-.0107.457105.0721.08847.0835.06351.13177.05697.25985-.0063.12797-.09201.32912-.15712.47637-.06543.14732-.141924.30676-.228384.4042-.08656.0973-.144637.13524-.257184.18778-.112481.0525-.199535.0715-.414272.10112-.214272.0294-.622608.0479-.87136.0289-.248832-.0181-.412288.0373-.499968-.1301zM-78.235526 983.29622c.03664.17933.01272.0913.202209.1634.190288.0724.605296.0787.868704-.0107.263513-.0895.42539-.22641.575726-.39812.150578-.17167.202422-.3842.262656-.56141.06028-.17711.222624-.33131.121173-.46956-.101419-.13842-.355061-.026-.535349-.0207-.180217.006-.322536.001-.535336.10218-.212832.099-.45792.27298-.636336.48997-.178353.21684-.360144.52494-.323265.70436zM-76.659797 984.84779c-.183703-.28156.176502-.44616.303038-.68393.126508-.2378.09484-.48351.333318-.60222.238464-.11864.710682-.17065.86865.0307.157776.20128-.0786.38686-.161486.61244-.0829.22562-.157584.50828-.434366.6635-.276768.15515-.725554.26117-.909072-.0207zM-76.216791 986.2889c-.0938-.14613-.04916-.21865-.0062-.38261.04196-.16419.163545-.41622.314272-.54854.150579-.13237.324617-.17408.528521-.21658.203863-.0425.548247-.11255.678528-.0116.130206.098.101003.0949.07858.28869-.02058.19403-.2376.57137-.414246.76514-.176504.1938-.360205.37342-.58569.38976-.225504.0162-.499104-.1354-.592783-.2815zM-81.045045 982.90364c0-.0235-.03951-.37837.04257-.54858.08224-.17024.242496-.2775.392832-.40419.150564-.12681.202432-.28901.442817-.36812.24048-.079.655903.0319.8928.0362.237024.006.39563-.13902.528575-.0235.133117.11721.148957.35853.100171.56298-.04896.20442-.261792.42188-.41424.54859-.152481.1268-.10512.14808-.449985.22381-.344751.0754-1.535616-.007-1.535616-.0289zM-83.972861 982.41835c.02304.17671.0526.15212.257472.20411.204692.0519.555599-.0373.803052-.11229.247392-.075.636372-.27561.661581-.30115.02592-.026.396455-.16742.595962-.30623.199557-.13902.521765-.26584.606037-.46443.08433-.19847.200783-.32273-.0304-.52061-.230976-.19786-.930766.0261-1.292903.13781-.36212.11165-.640376.31317-.858543.45936-.218016.14611-.327971.23004-.464681.3828-.136722.15291-.299095.34409-.277632.52059zM-85.48295 981.30061c.03108.19242.04532.16803.242496.11722.197493-.0509.504152-.10957.828273-.23467.324135-.12512.655335-.24171.954567-.43896.299217-.19745.562692-.39814.681789-.60225.119294-.20414.159036-.32768.08079-.44404-.07791-.1167-.03517-.12862-.302991-.10712-.26784.0207-.856587.25024-1.212102.4134-.355542.1632-.618561.2264-.848478.46444-.229824.23805-.455508.63956-.424269.83196zM-75.659799 988.43073c-.02058-.35729.503382-.68047.737362-1.00034.234144-.31993.43416-.67855.646436-1.00041.212544-.32182.23472-.71132.626256-.92887.50254.39488-.373577 1.97171-.606054 2.59278-.232416.621-.196664 1.23555-.545452 1.28614-.348583.0507-.368002-.4175-.494948-.56142-.126932-.144-.34344-.0307-.3636-.38788zM-83.114286 985.42961c-.082.23134-.154733.21139-.0076.31648.144606.10507.439684-.14674.707085-.2654.267264-.11864.647756-.30917.888863-.45937.241056-.1499.427392-.23829.56568-.41851.13824-.18032.238752-.42132.242496-.61245.0063-.19122.0081-.38279-.161488-.45936-.172194-.0768-.3324.10048-.595952.25514-.263527.15496-.664832.44783-.939373.72473-.274464.2769-.615168.68732-.69696.9187zM-80.467861 985.41941c-.287136.57549.238464.0399.626303.0918.240768-.0755.481025-.0672.676737-.17347.19584-.10624.319599-.19745.393903-.35725.32832-.64391.400705-.76702.202209-.96975-.200769-.17327-.406272.0116-.59592.10219-.189888.0882-.675792.43498-.888912.6635-.21312.22848-.326721.4708-.414144.64306zM-80.366852 987.22621c-.02943.23936-.1296.29894.09088.39808.22032.0991.624463-.16199.949471-.25515.325008-.0936.680513-.28093.959601-.39807.279072-.11709.50472-.15615.676736-.36751.171984-.21111.375825-.51195.292944-.73495-.08287-.22304-.189473-.25387-.474752-.29603-.28512-.0422-.798112.15066-1.13128.30626-.333185.15534-.519183.40901-.767664.63285-.248544.22406-.566753.47521-.595985.71456zM-81.659765 990.45182c-.02061.20907-.0076.29249.181647.38792.191729.0954.503489-.0591.838386-.18396.334926-.12447.897246-.36475 1.131311-.61245.233856-.24765.316753-.47146.323215-.68392.0063-.21241.0736-.3512-.192143-.47976-.265824-.12862-.905104.19683-1.202032.36745-.29688.17065-.404592.33972-.58584.54103-.181248.20128-.473808.45457-.494953.6635zM-78.851702 990.79889c-.06336.24922-.292176.39176-.192143.57164.10017.18013.54544.0509.595937.0509.0504 0 .360047.15252.606063-.0918.245952-.24428.663696-.6685.868656-.83704.205104-.16842.317609-.40176.282822-.58182-.03477-.18011-.01227-.20645-.282822-.27563-.270144-.069-.809104.14507-1.131312.33688-.32216.19159-.684.57764-.747456.82679zM-77.25575 988.85948c.379439-.18576.336096-.48593.555551-.6125.219456-.1263.274752-.23239.272736-.4083-.002-.17612-.05102-.35134-.32328-.45937-.272159-.10802-.857886.0416-1.171662.24505-.313823.20363-.466384.61128-.616176.84726-.506081.84106.674352.67442 1.282831.38791zM-84.055713 990.36401c-.322425.24066-.951248.17105-1.446245.45773-.494967.28676-1.040212.88018-1.29988 1.25591-.259776.37573-.493056.50809-.328547.73622.164781.22824.447399-.0313.842763-.1298.395409-.0987.888117-.31975 1.314204-.72179.426105-.40201.525692-1.15129.949961-1.56627.4243-.41498 1.000071-.49032 1.449927-.74347.449797-.25309.891316-.54136 1.185637-.82284.29432-.28148.543375-.48509.542799-.75067-.000511-.26557.05456-.30272-.285696-.40419-.340175-.10155-.875151.19604-1.299936.53411-.4248.3381-.8506 1.017-1.114212 1.37142-.26352.35442-.188427.54312-.51082.78377zM-84.498081 988.33887c-.147033-.15878.134754-.46729.323197-.74517.18864-.27791.374186-.51577.666659-.735.292471-.21916.715255-.53867.949491-.57162.234144-.0333.216864-.0773.303021.0817.08625.15898-.02592.42514-.232416.735-.207072.30982-.810189.65166-1.121184.84723-.31104.19563-.503516.33163-.676784.3981-.173407.0665-.06504.14853-.212256-.0107zM-85.508234 985.03153c-.12672-.0987-.115963-.29408-.02061-.55121.0958-.25724.443749-.58461.747481-.79622.303719-.21163.768672-.36557 1.040364-.43888.271872-.0733.420388-.12344.555552-.0715.135207.0519.191716.0107.20222.23471.0076.22353-.350162.62657-.595976.83703-.245664.21035-.563376.29343-.818193.4083-.25488.11502-.519903.22719-.707055.28579-.1872.0588-.277344.19062-.404049.0918zM-87.86609 984.39777c-.143847-.19282.253728-.65025.514278-.95278.26064-.30254.687242-.59054 1.04991-.78675.362685-.19645.79632-.37942 1.09281-.39699.146727.45161.006.65688-.214272.97441-.222624.31757-.730989.46222-1.085625.62796-.354648.16581-.77472.38629-1.007121.45474-.232416.0683-.206208.27204-.349935.0791zM-89.230286 983.47388c.10716-.32944.219168-.56154.392832-.84453.173619-.28299.386996-.51021.657096-.70732.270144-.19706.584625-.4294.814236-.47642.229824-.047.330048-.0937.421404.0235.09156.11554.04184.19301-.07852.45473-.12036.26185-.514004.70023-.807113.9239-.293079.22381-.536559.27736-.77851.38254-.24192.10517-.163946.0841-.621398.24533zM-86.760701 988.06324c-.02304-.44929.0015-.64553.121112-.9187.118229-.27319.33138-.35584.626247-.60227.294867-.24636.966908-.58408 1.262622-.70434.295746-.12032.212832-.30333.373733-.18395.16066.11968.140362.46084.03047.73495-.110201.27417-.508305.54537-.747497.71456-.23904.16925-.36673.16963-.646423.32665-.279648.15696-.522765.34718-1.020233.63286zM-87.89201 986.59335c.09564-.45387-.03244-.60619.09095-.86768.123691-.26148.575757-.57163.606074-.61249.03047-.0406.491827-.21655.646438-.24503.154718-.0283.150366-.10347.252576 0 .102315.10347.05321.42541 0 .62264-.05336.19705-.10732.36938-.303036.5206-.195643.15131-.633478.12628-.848463.23471-.215136.10815-.237024.46403-.44446.34707zM-90.780878 986.45041c.006-.24143.0076-.54309.171572-.81662.16272-.2735.590038-.48175.858589-.63289.268704-.15112.473049-.46604.69696-.30623.223776.16018.108681.65886.02061.87788-.08853.21888-.2088.27117-.383813.37767-.175059.10656-.486948.15333-.65658.21451-.169723.0609-.245664.095-.363637.14264-.11793.0478-.351726.38432-.343403.14266zM-93.508145 986.86893c.24768-.56638.181635-.82483.404048-1.2045.222336-.3797.858604-.92891.909079-.99013.05063-.061.526086-.41688.757593-.49001.231552-.0731.337475-.0283.555536-.0207-.05457.34466-.176301.75211-.454541 1.12286-.278208.37072-.868108.70847-1.232275.96973-.364244.26124-.156809.2093-.93944.61248zM-93.902054 989.40045c-.0076-.041.238752-.70188.404049-.97994.165387-.27808.515156-.68391.555552-.68391.04032 0 .654321-.57277.878747-.70437.224352-.1313.24048-.2686.404064-.16339.16354.10528.10095.46224.04032.73496-.06048.27271-.230688.45703-.474743.73494-.244224.27793-.723837.59296-1.040409.74517-.316587.15213-.757575.35728-.767671.31646zM-91.619246 990.0333c-.120358-.36254.131268-.86763.171998-.86763.04032 0 .338899-.67515.555552-.91869.216576-.24352.497967-.42254.69696-.54102.198901-.1185.283104-.2946.46462-.20411.181652.09.22608.40446.171966.69413-.05457.28969-.406792.55228-.646485.79617-.239904.24401-.523947.4914-.767655.65333-.243648.16177-.172588.21967-.646456.38787zM-89.98289 991.06431c-.157111-.34666-.133843-.33565-.09095-.56141.04305-.22564.363652-.6227.414144-.69414.05031-.0715.612772-.48621.909064-.69414.296337-.20776.480384-.60554.747497-.42868.266976.17691.139754.58589-.02061.90848-.160052.32254-.543244.53911-.797988.74514-.254592.20595-.389542.23987-.585852.35724-.196447.11748-.418434.12214-.575743.36751zM-87.942545 991.23785c-.117478-.1404-.006-.53193.131267-.78603.137482-.2541.666658-.59205.68688-.63285.02061-.041.501984-.43575.69696-.5512.195021-.11555.326016-.162.434304-.18397.108691-.0235.130206-.0786.192141 0 .062.0787-.04244.21216-.09095.39808-.04881.18598-.171981.69412-.212256.71457-.04032.0207-.496286.44136-.67674.5716-.180621.1301-.240768.15595-.383858.23471-.143242.0787-.33972.2031-.47473.2347-.135208.0316-.185549.14039-.303038 0zM-84.92235 993.56519c0-.0307.134602-.42891.252576-.66349.118229-.23471.606058-.92891.646468-.99016.04032-.061.590553-.2654.757577-.29598.16704-.0307.872701-.60735.878764-.40835.006.19886-.087.75747-.313116 1.09221-.226368.33475-.574515.56001-.888876.74518-.314388.18517-.875808.2391-1.090929.34707-.215136.10802-.242496.20416-.242496.17347zM-82.558734 994.21847c-.03531-.0258-.138848-.0326-.161492-.22459-.02304-.192.123989-.37327.303036-.6635.178773-.29022.6182-.67882.9192-.90848.300993-.22976.531441-.47246.777777-.541.24624-.0683.361216-.23783.555537-.0107.194191.22744-.07072.77695-.272736 1.13306-.201809.3561-.510609.55818-.949521.77578-.438918.2176-1.136316.46445-1.17168.43894zM-79.821398 994.36142c.14832-.18013.356976-.64711.56565-.9289.2088-.28184.408366-.47631.616158-.58185.207936-.10582.589842-.49508.888912-.26541.299009.22976.03232.89985-.181647 1.2045-.213984.30468-.46944.24194-.787872.35727-.318417.1154-1.249359.39429-1.101024.21451zM-100.501 992.82832c-.12657-.13524-.0151-.31758.0426-.37532.057-.0579.34998-.39112.557093-.57741.207072-.18617.447476-.34417.685691-.53416.238176-.18979.540037-.49993.742776-.6063.202828-.10635.24912-.23755.400008-.11541.150962.12214.07851.44403-.04258.75067-.121083.30663-.500117.70394-.785612.93834-.285696.23443-.595636.39705-.871401.47639-.275905.0792-.602145.17852-.728555.0434zM-98.029747 992.66953c-.160054-.17408.37142-.82283.442844-.83727.07138-.0116.272736-.38207.585678-.60633.312969-.22406.670238-.6027 1.085672-.59187.415372.0107.667795-.40813.842779-.27423.175074.13358-.0015.35346-.128842.60625-.12672.25284-.381933.52165-.628538.72183-.246528.20026-.552097.32006-.828502.46191-.27648.14205-.596811.30851-.828525.38982-.23184.081-.382652.30409-.542792.12979zM-95.344161 993.00155c-.0576-.15152.168676-.68622.242784-.90944.07413-.2233.494451-.4158.757107-.60633.262656-.1904.535786-.26367.771385-.4042.235584-.14069.46368-.48475.642816-.43307.179379.0515.15696.10091.142788.31757-.01516.21658-.234144.53692-.499968.80844-.265536.27153-.80625.53059-1.114197.72178-.308023.19119-.566011.35842-.72852.43308-.16272.075-.156792.22383-.214272.0721zM-93.629985 993.92544c-.09564-.0573.31768-.56877.342811-.64959.02592-.0808.541848-.62863.785664-.83728.243936-.20879.376748-.34556.442853-.36092.06609-.0116.721152-.47701.899923-.4042.178772.0732.189278.3593.0714.63518-.11748.27591-.469305.53383-.728505.75071-.2592.21681-.579819.43266-.814251.54853-.234432.11593-.340476.0842-.514248.1443-.173634.0605-.389922.23029-.485688.17308zM-96.929813 990.07108c-.08365.006.271584-.56297.285696-.6352.01515-.0719.212256-.71345.399956-.98163.187807-.26819.463635-.44983.671404-.6063.207648-.15633.3893-.34666.557112-.34648.167663.00029.22032-.0519.299976.18779.07988.23986-.209952.76899-.414265 1.08274-.204284.31371-.537743.58796-.771416.76506-.233568.17709-.511153.29248-.585645.33202-.07475.0392-.358998.19704-.442831.20231zM-91.172996 994.22862c0-.0362.09291-.55365.285696-.86616.192746-.3125.63513-.6801.914247-.90946.279072-.22925.626688-.57467.857043-.47639.2304.0986.178364.39693.11444.62074-.06396.22383-.642831.59188-.642831.66405 0 .0721-.516291.53355-.785649.70737-.26928.17386-.742827.29593-.742827.25985zM-90.54449 996.03308c.239616-.73168.54282-1.05378.54282-1.12595 0-.0721.429621-.64211.728549-.9239.298944-.28184.807552-.63321 1.057095-.73626.249408-.10272.207936-.1281.328534-.0574.120358.0706.19728.24715.17136.47638-.02592.22927-.23904.48098-.471426.73625-.232416.25517-.551703.46077-.942775.73621-.391089.27548-.453828.26971-1.414217.89503zM-88.287494 996.35072c.0526-.30694.19584-.6771.414264-.98169.218592-.30451.871368-.70732.91425-.79393.0426-.0865.500042-.61321.728502-.56304.228384.05.203859.23911.228384.43308.02304.19403.057.47642-.15711.66404-.214272.18779-.63492.45769-.942792.64967-.307918.19201-.696066.41828-.89997.50524-.203842.087-.3384.3935-.285696.0864zM-85.78761 996.6394c.02061-.47134.228384-.72178.257184-.82283.0288-.10091.500029-.65691.828517-.89507.365351-.2648.768884-.43737 1.228487-.56296.02592.42141-.173423.77384-.385647 1.09712-.203252.30928-.501696.55555-.814253.75067-.338551.21113-.72438.391-1.114212.43307zM-83.102084 996.89925c-.02592-.59158.444051-.79695.728502-1.19819.284544-.40123 1.157112-.95277 1.228536-.98161.07137-.0289.578529-.54201.842785-.23109.264384.311-.24912 1.03723-.499968 1.40027-.250848.36303-.814261.72181-.885685.75064-.07124.0289-.574515.24431-.785619.28875-.211104.0446-.388617.11502-.628551-.0289zM-81.21647 997.76542c-.05696.007.848304-1.08935.857088-1.16931.0063-.0799.7452-.4926.842785-.46196.09776.0307.835391-.0906.942815.21658.171969.49099-.623999 1.04294-.957087 1.22702-.333135.18397-.447536.0411-.728559.0721-.281088.0308-.957042.1154-.957042.1154zM-89.538461 1001.7211c-.296352.1371-.03318-.5674.121112-.8574.179379-.3369.392544-.6853.707055-.89827.221184-.14975.538104-.3611.76767-.22458.285696.16985.328821.66265.222336.97995-.146122.4348-.702006.4942-1.111104.6941-.291318.1422-.349221.1409-.70707.3062zM-86.770826 1001.6191c.06321-.3845.09731-.4923.282816-.7962.17568-.2876.303977-.5494.606089-.6941.323485-.15493.672964-.28441 1.030267-.30627.08185-.006.1979-.0289.242496.0406.185154.28987-.08564.70547-.262656 1.00047-.212544.3541-.571528.5336-.949431.6941-.329607.1401-1.007908.4176-.949521.061zM-88.144541 997.51561c.121112-.0816.789939-.82847 1.151516-.59206.350919.22951.01214.66695-.181652 1.04122-.220608.42564-.929301.7553-1.131324.87783-.202207.12227-.514809.52165-.828273.46953.351648-.71844.564872-1.50735.989901-1.79652zM-86.50817 999.86337c.02061-.041.08079-.51038.525237-1.20451.444443-.69409.969681-1.06161 1.050471-1.06161.08079 0 .463181-.36828.66666-.24508.203661.12331.22752.37627.10095.71456-.12672.33825-.778633.69337-1.090899.93912-.3123.24584-.557827.40977-.767718.55121-.209664.14144-.504999.34707-.484794.30621zM-84.164789 999.92462c-.130206-.21967.303035-.93913.424239-1.04121.121109-.10218.511125-.559.767717-.69411.256608-.13494.515869-.14869.686835-.16341.171148-.0116.179181-.23805.323197.0207.144.25825-.439081.99054-.666645 1.28618-.22752.29559-.385192.43106-.585867.53079-.200767.0997-.385437.0954-.545427.10219-.160054.006-.2736.17875-.404049-.041zM-91.679846 999.02634c-.434091.12628.20078-1.10244.301596-1.1433.10095-.041.32679-.43876.647865-.61242.308736-.16703.6284-.3293.969696-.40832.118229-.0273.288576-.11683.363636-.0207.2304.29608-.115951.76863-.323241 1.08202-.241632.36595-.624612.48946-1.010046.6941-.366048.19424-.949506.40833-.949506.40833zM-92.326301 1001.4762c.10095-.9391.464636-.8779.505032-.98.04032-.1022.343431-.63283.444443-.69411.10095-.061.486493-.52024.727261-.38787.267264.14688.184532.62968.08079.91868-.143244.398-.551385.5249-.888891.7758-.668811.3226-.924933.6608-.868683.3675zM-95.093966 1002.1091c.446432-.1294 1.056324-.9092 1.474728-1.0208.428226-.1143.626156-.3572.828288-.7554.124591-.2458.264384-.56985.141272-.8166-.04731-.095-.177332-.14083-.282816-.14265-.325395-.007-.619367.22407-.88886.40827-.362835.24818-.717786.54288-.949459.91878-.153293.2484-.20304.5505-.262656.837-.03882.1876-.242784.6243-.06048.5716zM-93.760646 998.59762c.3399.0162.645452-.55996 1.111104-.87789.507788-.34665.590309-.19259.808098-.46954.157595-.20048.31119-.3406.262656-.59206-.02592-.13765-.06639-.15413-.202221-.18394-.39744-.0864-.777055.29003-1.090929.55122-.315042.26214-.6681.44959-.808068.83703-.106411.29434-.390558.72087-.08079.73495zM-95.093966 997.16853c.14673-.55143.606045-.97992.646484-1.0616.04032-.0816.705676-.7432 1.070665-1.10243.191307-.18799.279648-.37209.545472-.34707.158231.0116.304067.0235.323211.18394.04668.38768-.195627.78329-.444414 1.08201-.30807.36973-.795714.53813-1.212102.77579-.301552.17204-.372186.13539-.929316.46954zM-97.578752 1001.4353c.220032-.696.484791-1.1432.565632-1.2453.08077-.1022.422784-.89515 1.010076-1.18408.260928-.1281.61353-.46269.808067-.24506.238176.26652.02592.55181-.161492.85743-.303417.49691-.796608.87371-1.272721 1.20451-.309389.2148-.20467.085-.949487.6125zM-96.972725 996.98479c.08077-.63123.144763-.87325.363669-1.24534.204267-.34749.516291-.63226.848447-.85748.26064-.1769.401821-.19866.868669-.36743-.02956.83037-.03153.78372-.202221 1.12281-.17712.35183-.489631.62892-.808083.85747-.319437.22927-.411582.23961-1.07072.48997zM-99.033303 1000.2921c.08715-.57669.05973-.9706.302988-1.36784.219456-.35783.604651-.59369.969696-.79624.279936-.15534.629782-.35202.909129-.3062.03456.41156.135211.67032 0 .95953-.167665.35846-.593982.51923-.909129.7554-.500968.39046-1.055381.69455-1.272684.75535zM-98.588855 995.10659c-.0062.24141.229824.36303.464631.40829.366912.0708.700704-.29187.989869-.53082.303776-.251.646472-.7145.646472-.79618 0-.0817.300381-.33521.161492-.75536-.665718.0913-1.210601.6617-1.737353 1.10238-.198118.16603-.519716.3117-.525237.57169zM-100.91206 995.0045c.68205-.047 1.313075-.5104 1.434311-.57164.121086-.061.478368-.40901.545459-.73499.04608-.22328.103552-.57695-.100928-.6737-.504049.26805-.838656.22694-1.171712.49-.28656.23726-.65023.98562-.70705 1.49033zM-103.76054 995.63735c.42886.1123.86335-.2642 1.23231-.53076.36374-.26281.65669-.65686.8081-1.08201.10229-.28846.31997-.60453.10093-.81668-.11232-.10867-.30296.13917-.44447.20414-.444.47465-.84274.72357-1.15149 1.12282-.25574.37758-.28685.56212-.54547 1.10243zM-101.53833 997.9239c0 0 .10494-.6519.30304-.95954.20077-.31167.48082-.58534.80808-.75539.22925-.11903.541064-.44548.727251-.26534.244512.23675-.102187.7043-.303041.97992-.26698.36635-.98202.68086-1.1111.77579-.13764.10091-.45547.392-.42423.22457zM-100.99286 999.84295c-.0432-.3218.0555-.6204.18166-.89826.12396-.27351.35619-.48234.54542-.71458.18804-.23078.356244-.48519.585904-.67369.13809-.11321.31392-.36092.464621-.26543.147479.35402.05534.66131-.06048.95956-.175068.45007-.544158.81002-.909065 1.12283-.23674.20309-.43496.24507-.80807.46957zM-104.10078 999.98855c-.00094-.45066.38186-.16844.74281-.43308.24307-.17832.60611-.54744 1.08563-.85173-.21283.55031-.41762.81959-.49997 1.14042.17342.46874.35467.73034.0136.92394-.44985.2556-1.34165-.258-1.34275-.77955zM-103.65799 998.32839c-.0288-.0574-.098-.54019-.0288-.85172.0923-.41295.28858-.77216.55712-1.09712.27014-.32694.49026-.65026.89993-.75066.12899-.0316.3523-.10443.41423.0116-.0125.46603-.32025.99164-.49992 1.40029-.34982.55345-.81576.73316-1.34279 1.28482zM-105.55784 998.42946c.50635-.41459.88564-.93833.9428-.99606.057-.0579.60682-.60029.65708-.99608.0353-.27773-.0151-.69184-.27129-.79398-.21629-.0859-.3749.17045-.52855.34646-.33408.38261-.40962.93695-.54281 1.42915-.0907.33421-.32074.49414-.25719 1.01051z" class="colorfff svgShape"></path><path d="M-133.32043 992.11465l.28023 1.69704q-1.3783.28818-2.36366-.1912-.97776-.47691-1.58497-1.67782-.75129-1.48589-.23299-2.95996.52338-1.47669 2.26563-2.3763 1.84291-.95166 3.34628-.51516 1.50846.43392 2.30096 2.0012.69208 1.36881.32371 2.63713-.216.75326-.97358 1.46532l-1.10634-1.30892q.50715-.42876.62589-1.02272.1216-.58885-.18227-1.18929-.41938-.82944-1.27094-1.04428-.84899-.20957-2.16827.47152-1.3998.72283-1.73667 1.53848-.33692.8157.0749 1.62987.30359.60042.89989.83797.59639.23755 1.50227.007zM-134.55616 996.23376l6.9473-4.57033 3.35327 5.20572-1.17527.77314-2.44015-3.78816-1.54015 1.01322 2.27052 3.52475-1.17053.77001-2.27049-3.52474-1.89082 1.24393 2.52649 3.9222-1.17049.77zM-130.26713 1002.767l6.36196-5.37059 1.04404 1.26305-2.0735 6.21784 4.24856-3.5865.99692 1.206-6.36202 5.3706-1.07665-1.3025 2.00632-6.0941-4.14875 3.5023zM-123.43531 1010.4363l4.66662-5.119-1.80901-1.6842.95018-1.0423 4.84489 4.5108-.95018 1.0422-1.80485-1.6804-4.66666 5.1189z" style="line-height:125%;-inkscape-font-specification:'Arial Bold'" fill="#aa0000" font-family="Arial" font-size="87.5" font-weight="700" letter-spacing="0" word-spacing="100" class="colorfff svgShape"></path><path d="M-119.5662 1013.958l4.6358-6.9449 2.92042 1.9909q1.1016.7509 1.47204 1.2791.37827.5268.35889 1.2097-.0206.6831-.43046 1.2989-.52174.7816-1.31799.9833-.79307.1968-1.78637-.2872.27303.5721.35177 1.0876.0835.5187.0398 1.6675l-.0655 1.9269-1.65945-1.1313.005-2.195q.005-1.1744-.0512-1.517-.0547-.3475-.22435-.5734-.16641-.2308-.64473-.5567l-.28137-.1916-1.93524 2.8992-1.38758-.9459zm4.06278-3.0619l1.02662.6999q.9985.6806 1.30384.7647.30537.084.58515-.028.27965-.1126.48846-.4253.23414-.3505.18884-.6916-.0374-.3425-.33692-.6294-.15283-.1386-.99673-.7139l-1.08287-.7382-1.17633 1.7622zM-111.28978 1014.6576q.48965-1.1805 1.17129-1.8335.50558-.4798 1.1486-.7589.64825-.2768 1.2794-.2759.84123-.01 1.77473.3923 1.68967.7157 2.26201 2.2036.57752 1.49-.2051 3.3767-.77599 1.8709-2.22183 2.5039-1.44369.6277-3.12807-.086-1.70535-.7223-2.27686-2.1974-.5693-1.4804.19584-3.3249zm1.61246.6211q-.54428 1.3123-.22666 2.2461.31994.9287 1.24298 1.3196.92304.3911 1.78999-.029.87425-.4227 1.43165-1.7666.55087-1.3281.24307-2.2268-.30262-.8965-1.25697-1.3007-.95433-.4043-1.81388.012-.8573.4114-1.41029 1.7447zM-81.002486 1020.7857l-1.760775.4685-1.17936-1.654-3.204393.8527-.18226 2.0162-1.717025.4569 1.011713-8.932 1.71154-.4554 5.320545 7.2471zm-3.815259-2.4122l-1.88778-2.7122-.299461 3.2943zM-80.155669 1020.4082l-3.817964-7.4359 2.223451-1.1659 3.939456 4.3721-1.284336-5.7644 2.228501-1.1685 3.817975 7.4359-1.380281.7237-3.005378-5.8533 1.544848 6.6192-1.43048.7501-4.460924-5.0901 3.005419 5.8533zM-71.69153 1015.6535l-5.111033-6.5955 4.839244-3.8297.864637 1.1157-3.521437 2.7869 1.133012 1.4621 3.276638-2.5931.86112 1.1113-3.276638 2.5931 1.391081 1.7951 3.646121-2.8855.861162 1.1112zM-65.669162 1010.7283l-6.011259-5.7685 2.425742-2.5816q.914996-.9738 1.491757-1.2557.576535-.2899 1.239881-.1577.663326.1322 1.196394.6437.676594.6493.741744 1.4762.06108.8229-.57561 1.7329.603422-.1775 1.119559-.1711.520025 0 1.633927.2363l1.869696.3836-1.378368 1.4669-2.14128-.3684q-1.145047-.2005-1.48898-.1995-.348048-.001-.596675.1288-.252576.1279-.649872.5505l-.233568.2487 2.509488 2.4081-1.152555 1.2265zm-2.316445-4.5555l.852685-.9075q.829379-.8826.96192-1.1731.132692-.2904.06892-.5879-.06357-.2974-.334266-.5571-.303429-.2912-.64368-.3025-.3405-.021-.670032.2318-.160662.1296-.86151.8754l-.899466.9573 1.525371 1.4637zM-60.096074 1004.4997l-6.519456-5.1742 1.033776-1.33026 6.519456 5.17416zM-57.683107 995.75147l1.322064-1.08396q.928409 1.06904 1.00222 2.17172.07222 1.09475-.661475 2.22121-.907837 1.39376-2.432221 1.66586-1.529136.269-3.163372-.81807-1.728679-1.14994-2.095159-2.6867-.371232-1.53993.586307-3.01005.836352-1.28397 2.10962-1.58631.75491-.18213 1.741618.13238l-.580278 1.61845q-.619324-.23418-1.18907-.0452-.566661.18416-.933532.74728-.506756.77808-.271296 1.63252.238464.84966 1.476103 1.67281 1.313033.87347 2.181251.76686.868258-.10635 1.365696-.87023.36687-.56325.276768-1.2046-.0899-.64137-.735388-1.32379zM-50.13494 988.07134l-.829123 1.63816-2.006006-.21525-1.508914 2.98125 1.364832 1.48216-.80856 1.59748-5.909904-6.71983.805968-1.59237 8.891707.82847zm-4.323205 1.26341l-3.258802-.38793 2.228812 2.42291z" style="line-height:125%;-inkscape-font-specification:'Arial Bold'" fill="#aa0000" font-family="Arial" font-size="87.5" font-weight="700" letter-spacing="0" word-spacing="100" class="colorfff svgShape"></path><path d="M-146.60838 955.02323l-.0311-1.667 4.42481-.0842q1.05324-.0207 1.36419-.0881.49953-.1167.79862-.52224.29333-.41122.28022-1.10955-.0152-.70962-.30419-1.06461-.2965-.35496-.71581-.42018-.41935-.0653-1.38902-.0465l-4.51954.086-.0311-1.667 4.29104-.0817q1.47126-.0279 2.08124.0955.60989.12396 1.03469.48175.42468.35245.68682.95592.25661.60358.27475 1.5835.023 1.18267-.23385 1.80157-.2618.61344-.68422.97643-.42805.36307-.89963.48475-.69914.17669-2.07002.20283l-4.358.083zM-138.51846 946.50079l-8.15012-.59267.1152-1.61804 5.68269-2.97517-5.44269-.39575.11002-1.54503 8.15007.59266-.11871 1.66863-5.55123 2.93388 5.31478.38649zM-137.80214 938.26486l-8.09632-1.11519.22262-1.65202 8.09639 1.11517-.22262 1.65204zM-136.97742 932.97386l-8.58536 1.27459.35093-1.77299 6.3357-.85046-5.53765-3.18158.34329-1.73436 7.43854 4.51943zM-135.8211 927.49559l-7.83231-2.35351 1.72678-5.86885 1.32499.39813-1.25659 4.27073 1.73635.52173 1.16921-3.97377 1.31966.39657-1.16921 3.97374 2.1317.64057 1.30105-4.42191 1.31962.39655zM-133.5869 920.11787l-7.55057-3.15669 1.32742-3.24266q.50074-1.22317.9326-1.68876.42884-.47293 1.08542-.58861.65656-.1154 1.32614.16422.84977.35529 1.19937 1.09271.34445.73526.0777 1.80011.49292-.37908.97013-.55751.47932-.18374 1.58589-.36718l1.85443-.31587-.75427 1.84257-2.09896.42699q-1.12363.2251-1.43972.349-.32128.12162-.50385.33191-.18781.208-.40506.73893l-.12792.31227 3.15206 1.31779-.63066 1.54067zm-3.72661-3.36232l.46662-1.13989q.45388-1.10864.47405-1.42329.0206-.31461-.14233-.5655-.16272-.25073-.50261-.39299-.38113-.15936-.69817-.0482-.32001.104-.53523.45288-.1024.17669-.48596 1.11348l-.49224 1.20239 1.916.80096zM-132.86939 911.52031l.64302-1.49476q.77688.26855 1.32205.0657.54784-.20775.91321-.87272.38699-.70412.2895-1.22278-.0995-.52632-.49435-.74786-.25344-.14218-.51265-.0881-.26151.0465-.59875.34691-.22839.20672-.95327.992-.9316 1.01057-1.61045 1.24811-.95498.33378-1.80281-.1422-.54575-.30634-.84787-.88185-.30432-.58321-.23069-1.30863.0764-.73039.53367-1.56258.74694-1.35906 1.71273-1.71258.96847-.35849 1.97167.15957l-.73772 1.4931q-.60205-.21553-1.01131-.0393-.41141.16864-.74972.78408-.34913.63522-.28844 1.13964.0387.3244.31619.48034.25344.14218.55275.0266.3806-.14734 1.21365-1.07137.83309-.92412 1.37987-1.28087.54456-.36442 1.16445-.39018.61769-.0334 1.29502.34672.61391.34458.96048.99013.34654.64555.26323 1.42354-.0886.77526-.60508 1.71578-.75237 1.36892-1.7793 1.75251-1.03187.38092-2.30901-.14929zM-126.52781 905.84412l-6.77444-4.61723.92252-1.38227 6.77448 4.61719zM-131.0424 897.82005l1.93414-2.33786q.65425-.7908 1.11722-1.1045.62367-.42015 1.36736-.46727.74373-.0471 1.51825.25491.77027.29837 1.65116 1.04267.774.6539 1.17327 1.32167.48757.81575.54624 1.61422.0455.60374-.24336 1.32157-.21802.53549-.80414 1.2442l-1.99138 2.40702-6.26882-5.29663zm2.11872-.38309l4.15217 3.50818.79009-.95501q.4433-.53585.58009-.82412.18062-.37619.16478-.73462-.0126-.36281-.32409-.84653-.31609-.48732-1.04304-1.10153-.72695-.61418-1.22332-.81335-.49639-.19924-.90752-.14989-.41119.0491-.78487.34275-.28138.21736-.92865.99951l-.47549.57478zM-113.76538 891.96595l-1.3692 1.17268-1.74428-.96481-2.49179 2.13405.68548 1.87164-1.33517 1.14349-2.85495-8.37905 1.33097-1.13986zm-4.40755-.50755l-2.81929-1.60202 1.11844 3.0587zM-116.88563 884.21961l2.64903-1.45584q.8961-.49244 1.44072-.61221.73283-.15896 1.4416.0736.70881.23239 1.3193.80095.60782.56364 1.15639 1.583.48197.89565.61045 1.66497.15678.93974-.0793 1.70416-.17732.57828-.7069 1.13867-.3973.41712-1.20039.85843l-2.72737 1.49887-3.90373-7.25428zm2.10975.43066l2.58561 4.80487 1.08213-.5947q.60719-.33367.83923-.55097.30463-.2828.42027-.62208.12083-.34193.005-.90764-.11669-.57059-.56939-1.41179-.45267-.84127-.84189-1.21083-.38916-.36957-.78942-.47663-.40025-.10699-.85456.0272-.34085.0974-1.22717.58465l-.65124.35789zM-103.52386 878.39388l2.98208-.45189q1.008735-.15292 1.561044-.0772.742464.104 1.329771.56739.587294.46349.968418 1.20883.380301.73978.550553 1.88729.14961 1.00824.0076 1.77558-.170739.9372-.651378 1.57386-.362405.48213-1.049823.82551-.514556.25466-1.418564.39153l-3.070281.46525-1.21167-8.16629zm1.83657 1.13424l.80259 5.4089 1.218161-.18435q.683512-.10346.975104-.22745.382027-.16059.605528-.43919.22896-.27965.313468-.85063.08352-.57653-.05698-1.52349-.140508-.94699-.3811-1.42884-.24048-.48186-.580382-.72086-.339802-.23908-.812185-.26991-.353351-.0264-1.351024.12499l-.73315.11125zM-94.100154 885.57533l.881568-8.20943 6.023385.6606-.149153 1.38876-4.383118-.48071-.195233 1.81999 4.078368.44728-.148548 1.38314-4.078383-.44727-.239904 2.23437 4.538259.4977-.148396 1.38317-6.178572-.6776zM-83.217557 887.70697l3.525921-7.44928 5.465645 2.64202-.596448 1.26019-3.977326-1.92257-.781648 1.65142 3.700718 1.78891-.594062 1.25509-3.700737-1.78892-.959663 2.02749 4.118096 1.99061-.594081 1.2551zM-76.398499 891.26111l4.802976-6.59679 1.328894.98815-3.987052 5.47608 3.304266 2.45695-.815904 1.12064zM-66.800261 895.78323l1.160804 1.13159q-.520662.64157-.523152 1.22871.0012.59141.489642 1.1698.517412.61271 1.032336.70182.52274.0896.86616-.20647.220608-.19018.260928-.45457.04834-.26384-.112101-.68819-.111698-.28864-.586202-1.24945-.611055-1.23549-.593775-1.96124.02592-1.02086.762233-1.65715.474851-.4095 1.114048-.49426.647072-.0842 1.293859.2391.650429.32767 1.261933 1.05175.998662 1.18254.988582 2.22053-.0062 1.04226-.837504 1.81088l-1.126163-1.22067q.410339-.49458.390116-.94372-.01227-.44845-.464625-.98404-.466767-.55267-.955584-.67166-.31423-.0772-.555903.13132-.220608.19019-.218016.51396.0062.41178.568697 1.52372.565303 1.11196.704839 1.75436.147502.64308-.04546 1.23894-.184938.59648-.774371 1.10476-.534199.46071-1.253869.56304-.71961.10229-1.411735-.24869-.687827-.35462-1.378944-1.17297-1.005881-1.1911-1.002323-2.2975.0062-1.11012.945812-2.13388zM-59.736567 910.07632l-.962126-1.53107 1.184338-1.61422-1.750978-2.78637-1.928386.43019-.938284-1.49306 8.60398-1.71172.93528 1.48831zm1.10053-4.34283l1.956014-2.60321-3.151235.70122zM-59.372659 910.97486l7.282018-3.59467.724127 1.49817-6.044968 2.98395 1.800515 3.72506-1.237043.61068zM-56.016595 918.50037l6.591258-5.70364.638381 1.6891-4.911691 4.13285 6.363499-.29158.624471 1.65224-8.677461.18395-.628457-1.6628zM-52.429082 930.13085l-.477319-1.74845 1.599474-1.19387-.868674-3.18188-1.968582-.15837-.465491-1.70495 8.723339.90428.463997 1.69953-7.006744 5.38353zm2.308485-3.82816l2.623478-1.9118-3.216442-.26018zM-44.222991 929.62199l.514483 3.00263q.173952 1.01571.111456 1.57541-.08582.7525-.531245 1.35631-.445248.60384-1.174003 1.00575-.723225.40099-1.854576.59894-.994089.17389-1.756339.05-.931046-.15152-1.57176-.62248-.485136-.35527-.840384-1.04198-.263524-.51414-.419394-1.42436l-.529714-3.09145 8.05139-1.40888zm-1.080518 1.88119l-5.33281.93317.21024 1.22658q.117792.68824.247104.98004.167328.38231.448186.60184.281952.22511.848563.29739.572256.0715 1.505894-.0918.933667-.16341 1.404922-.41735.471254-.25386.699984-.60267.228672-.34872.248544-.82668.01728-.35757-.154368-1.36216l-.126432-.73815zM-46.934367 938.62284q1.244995-.0949 2.117866.21734.64342.23343 1.17406.67897.531072.45099.81314 1.01135.37967.74504.45455 1.75044.135648 1.81986-.900518 2.99447-1.035591 1.18029-3.025383 1.3316-1.973145.1499-3.171024-.84904-1.192349-.99951-1.327449-2.81378-.1368-1.83669.888537-3.00487 1.030896-1.16859 2.976221-1.3165zm.183168 1.70891q-1.383984.10518-2.052864.80573-.66335.70003-.589306 1.69421.07402.99418.827165 1.57523.759111.58619 2.176445.47843 1.40063-.10634 2.043389-.78241.643219-.67026.566669-1.69818-.07661-1.02785-.823738-1.60371-.7416-.57622-2.14776-.4693zM-50.361164 948.22269l8.169725.15696-.06595 3.50856q-.02592 1.32349-.2592 1.91613-.228672.59842-.798307.94803-.569664.34961-1.294128.33565-.919498-.0181-1.511079-.57551-.585993-.55776-.721584-1.64766-.322243.53464-.702201.87663-.380045.34762-1.34424.92625l-1.6128.97746.03744-1.99365 1.800432-1.17103q.96503-.62367 1.214669-.85548.255168-.23161.349401-.49467.09994-.26289.110304-.83734l.0058-.33788-3.410525-.0659.03139-1.667zm4.683197 1.75763l-.02304 1.23339q-.02016 1.19956.07229 1.49998.09446.3004.336701.47405.24192.17349.60984.18074.412358.0107.667382-.21269.26064-.21477.335002-.61889.03168-.20231.05098-1.21595l.02592-1.3009-2.073082-.0399z" style="line-height:125%;-inkscape-font-specification:'Arial Bold'" fill="#aa0000" font-family="Arial" font-size="86.25" font-weight="700" letter-spacing="0" word-spacing="2.32" class="colorfff svgShape"></path><path fill="#aa0000" fill-rule="evenodd" d="M-46.406866 961.70458c-2.054851 1.84313-2.573885 4.89706-2.829341 8.15872-2.176675-1.34467-3.94871 1.38071-.435773 1.88587-1.382659 2.46345-2.343966 5.1463-1.669421 8.68085 2.113344-1.6664 3.073248-4.43656 2.766874-8.41847 3.306413 1.8569 5.08729-1.365.34632-1.84318 1.864598-2.76859 2.796163-5.75723 1.821341-8.46379zM-142.81795 961.75588c2.07209 1.82335 2.61974 4.87211 2.90585 8.13118 3.26959-1.82977 4.28022 1.79306.45348 1.88162 1.40572 2.4501 2.39218 5.12357 1.75089 8.66443-2.1289-1.64604-3.11481-4.40685-2.84586-8.39153-2.78571 1.76117-4.55752-1.44725-.5599-1.8213-1.80833-2.7183-2.65377-5.74864-1.70446-8.4644zM-157.66699 976.30051c-.53239.0454-1.10289.83654-2.21219 1.41786-1.34606.70538-2.48821.54308-3.61497 1.01418-1.75358.73315-2.0055 2.70931-1.6569 3.32069 1.38536 2.42969 7.27339 6.98 8.07692 6.02003.40176-.47999.27532-3.57613.152-6.13347-.12374-2.55735.20707-5.35603-.51707-5.61045-.0762-.0266-.15143-.0352-.22752-.0289zm-.4107 1.97419c.0748-.006.12537.0107.14674.0471.11462.20567-.0297 2.04211-.0592 3.92444-.0294 1.88232-.0153 3.76812-.3309 4.10101-.63463.66579-4.5384-2.5535-5.67794-4.26369-.3139-.47099-.0921-2.31396 1.30121-2.39079.68742-.038 1.76283-.28841 2.73647-.68573.79107-.32284 1.56111-.70919 1.88362-.7324zM-166.16098 982.7057c.35509 6.72449-.0922 15.36364 6.59202 19.2672 3.51068 2.0502 6.89805 2.0065 7.46186 6.5421 6.45497-3.2787 7.85724-10.08281 2.96629-14.63693-2.80938-2.61587-7.87401-3.78371-11.34806-6.05328-2.47129-1.61454-3.97948-3.18561-5.67211-5.11909zm1.25509 3.04409c1.52201 1.56202 2.9184 2.44987 5.08638 3.70578 3.0477 1.76553 6.56973 2.77199 9.06926 4.86154 4.35167 3.63788 3.69549 8.07019-.43363 12.23349-1.3581-2.6655-4.65951-4.2801-7.72848-5.8579-5.84318-3.0041-5.39094-9.2569-5.99353-14.94291z" class="colorfff svgShape"></path><path fill="#aa0000" fill-rule="evenodd" d="m -145.28279,999.25079 c -0.11958,6.70941 -4.18346,8.71111 -10.82784,12.61581 -7.4256,4.3637 -10.76776,12.5213 -3.0122,19.3845 0.75003,-3.236 5.07915,-5.9303 9.12004,-8.2539 2.4386,-1.4022 4.53524,-2.4176 4.97339,-6.7014 0.47366,-4.6306 0.85823,-12.506 -0.25344,-17.04501 z m -0.63307,6.90531 c -0.1528,10.2412 0.0259,12.4675 -5.46496,16.0607 -3.33979,2.154 -7.30722,4.5825 -8.25294,6.6499 -4.32386,-6.0797 -2.29824,-10.9335 2.1191,-14.3703 3.98823,-3.103 9.29768,-4.8708 11.5988,-8.3403 z" class="colorfff svgShape"></path><path fill="#aa0000" fill-rule="evenodd" d="M-164.70897 1024.7611c0 0-.36127.5565-.34436 1.3201.14415 6.5121 2.11873 17.8189 2.26779 17.8557 5.89162 8.9379 29.10957 12.7527 45.31519 2.2625 1.11103-.7192 1.38478-2.0109 1.22245-3.0683-.57193-3.7259-.005-7.2642.51247-10.8388.26697-1.8329-1.09085-3.1534-2.42496-3.0881-3.41828.1674-6.80016 1.2466-11.73068 1.4941-1.43026.072-2.09855-1.0992-.6309-1.9922 4.40082-2.6779 17.27215-2.8876 23.46422-2.7282-.95516-.4282-1.69927-.9166-2.78643-1.0779-1.01232-.15-16.55572.3576-21.74254 3.0887-1.06575.5611-1.86394 2.4788-.19728 3.3474 1.27417.6641 7.32183.355 13.25619-.8466 1.13632-.23 1.57942.9003 1.48438 1.5716-.54727 3.8668-.70092 7.3441-.83566 11.1994-.0437 1.2538-.1831 2.2327-1.06557 2.7334-11.72617 6.6536-33.19311 7.7123-42.57029-2.4642-1.40972-4.4155-1.78532-8.9312-1.71529-13.5485 7.64924 10.7158 37.03766 11.9535 44.51821 3.3706.47145-.536.2615-1.4464-.11313-1.8525-.37506-.406-.77333-.5823-1.46453-.3926-4.85942 1.3335-13.05047 3.1868-13.74139-1.4842-.47008-.01-.80458.2604-1.0648.6776-.14855 2.3908-.27562 5.1898-.0555 7.5807-13.69133-.059-25.55477-2.4126-29.55725-13.1197zm44.93278 6.995c.49565 0 .79336.6475.4459 1.0131-3.46493 3.6455-10.35961 5.0868-14.81941 5.0528-.13036-1.9678-.0821-4.1409.0835-5.8842 3.84912 3.4565 10.80707 1.061 14.06636-.1407.0777-.028.15264-.041.22349-.041zM-30.654994 976.30051c.532425.0454 1.102896.83654 2.212214 1.41786 1.346055.70538 2.488205.54308 3.615005 1.01418 1.753546.73315 2.005459 2.70931 1.656864 3.32069-1.385366 2.42969-7.273411 6.98-8.076931 6.02003-.40176-.47999-.275616-3.57613-.151776-6.13347.123552-2.55735-.207072-5.35603.517075-5.61045.07603-.0266.151488-.0352.22752-.0289zm.410717 1.97419c-.0743-.006-.12528.0107-.146592.0471-.114624.20567.02995 2.04211.05933 3.92444.02938 1.88232.0144 3.76812.330883 4.10101.634665.66579 4.53839-2.5535 5.677977-4.26369.313834-.47099.09187-2.31396-1.30127-2.39079-.68737-.038-1.76279-.28841-2.736432-.68573-.791078-.32284-1.561133-.70919-1.883635-.7324z" class="colorfff svgShape"></path><path fill="#aa0000" fill-rule="evenodd" d="m -22.160981,982.7057 c -0.355076,6.72449 0.09216,15.36364 -6.592004,19.2672 -3.510691,2.0502 -6.89806,2.0065 -7.461878,6.5421 -6.454973,-3.2787 -7.857245,-10.08281 -2.966285,-14.63693 2.809325,-2.61587 7.874007,-3.78371 11.348064,-6.05328 2.471271,-1.61454 3.97944,-3.18561 5.672103,-5.11909 z m -1.255076,3.04409 c -1.522051,1.56202 -2.918419,2.44987 -5.086425,3.70578 -3.047674,1.76553 -6.569712,2.77199 -9.069264,4.86154 -4.351623,3.63788 -3.695472,8.07019 0.43367,12.23349 1.358122,-2.6655 4.659552,-4.2801 7.72848,-5.8579 5.843175,-3.0041 5.390957,-9.2569 5.993539,-14.94291 z" class="colorfff svgShape"></path><path fill="#aa0000" fill-rule="evenodd" d="m -43.039196,999.25079 c 0.119808,6.70941 4.183488,8.71111 10.82785,12.61581 7.42559,4.3637 10.767773,12.5213 3.012192,19.3845 -0.75001,-3.236 -5.079082,-5.9303 -9.12001,-8.2539 -2.43864,-1.4022 -4.535251,-2.4176 -4.973414,-6.7014 -0.473645,-4.6306 -0.858211,-12.506 0.25344,-17.04501 z m 0.633082,6.90531 c 0.15264,10.2412 -0.02592,12.4675 5.464973,16.0607 3.339792,2.154 7.307222,4.5825 8.252956,6.6499 4.323831,-6.0797 2.29824,-10.9335 -2.119104,-14.3703 -3.988195,-3.103 -9.297705,-4.8708 -11.598825,-8.3403 z" class="colorfff svgShape"></path><path fill="#aa0000" fill-rule="evenodd" d="m -23.612991,1024.7611 c 0,0 0.361296,0.5565 0.344362,1.3201 -0.144288,6.5121 -2.11873,17.8189 -2.267828,17.8557 -5.891587,8.9379 -29.109566,12.7527 -45.315182,2.2625 -1.111022,-0.7192 -1.384746,-2.0109 -1.222416,-3.0683 0.571926,-3.7259 0.0062,-7.2642 -0.512496,-10.8388 -0.266976,-1.8329 1.090861,-3.1534 2.42496,-3.0881 3.418272,0.1674 6.800173,1.2466 11.730692,1.4941 1.43027,0.072 2.098512,-1.0992 0.630864,-1.9922 -4.400804,-2.6779 -17.2721,-2.8876 -23.464178,-2.7282 0.955105,-0.4282 1.699232,-0.9166 2.786432,-1.0779 1.01232,-0.15 16.555726,0.3576 21.742544,3.0887 1.065744,0.5611 1.863915,2.4788 0.19728,3.3474 -1.274194,0.6641 -7.321845,0.355 -13.256188,-0.8466 -1.136324,-0.23 -1.579412,0.9003 -1.484434,1.5716 0.547324,3.8668 0.70093,7.3441 0.835714,11.1994 0.04382,1.2538 0.183086,2.2327 1.065559,2.7334 11.726147,6.6536 33.193115,7.7123 42.570309,-2.4642 1.409702,-4.4155 1.785283,-8.9312 1.71527,-13.5485 -7.649251,10.7158 -37.037627,11.9535 -44.518242,3.3706 -0.471414,-0.536 -0.261504,-1.4464 0.113553,-1.8525 0.375019,-0.406 0.773323,-0.5823 1.464543,-0.3926 4.859404,1.3335 13.050432,3.1868 13.741406,-1.4842 0.470078,-0.01 0.804549,0.2604 1.064757,0.6776 0.148532,2.3908 0.275616,5.1898 0.05555,7.5807 13.691329,-0.059 25.55474,-2.4126 29.55722,-13.1197 z m -44.932776,6.995 c -0.495648,0 -0.793379,0.6475 -0.445948,1.0131 3.464928,3.6455 10.359648,5.0868 14.819452,5.0528 0.130418,-1.9678 0.0823,-4.1409 -0.08372,-5.8842 -3.849182,3.4565 -10.807099,1.061 -14.066395,-0.1407 -0.07756,-0.028 -0.15264,-0.041 -0.223488,-0.041 z" class="colorfff svgShape"></path><path fill="#aa0000" fill-rule="evenodd" d="m -117.28478,1039.6554 c 13.5321,-2.0144 28.408143,-2.5471 45.993077,-0.093 v 1.6027 c -15.458826,-2.9207 -30.857457,-2.6789 -45.946877,0 z" class="colorfff svgShape"></path><path d="M-159.36302 1044.5804v-4.0384l1.20737.6842v3.3523l3.00204 1.7012v.686zM-154.52723 1047.317v-4.0717l1.20732.4609v4.0717zM-152.3315 1044.0927l2.34811.5818q.6972.1728 1.03781.2988.34462.1243.61308.3185.27245.195.45277.4538.18062.2556.18062.5196 0 .2861-.22436.4693-.22032.1842-.60105.2094.53693.2414.82545.5738.28849.3326.28849.6853 0 .2778-.18843.495-.18432.2152-.50889.2933-.32055.076-.79337-.01-.29655-.051-1.4305-.3266l-1.9995-.4954v-4.0717zm1.1861.9716v.9415l.77734.1928q.6932.1717.86153.1995.30451.051.47679-.026.17631-.078.17631-.2758 0-.1888-.15199-.3432-.14811-.1561-.44476-.2546-.17649-.057-1.01376-.2651l-.6812-.1688zm0 1.6192v1.0888l1.09789.272q.64113.1587.81343.1767.26438.032.42876-.055.16827-.089.16827-.3055 0-.1833-.12824-.3428-.12808-.1596-.37264-.2784-.24048-.1179-1.04985-.3185l-.95765-.2373zM-146.56365 1049.4876v-4.0717l4.34769.5182v.6889l-3.16375-.3771v.9026l2.94375.3509v.686l-2.94375-.3509v1.1082l3.27574.3905v.686zM-141.12268 1050.0462v-4.0718h2.41017q.90915 0 1.31922.1113.41392.1081.66154.3888.24768.2805.24768.6416 0 .4583-.37527.7582-.37522.2972-1.12191.375.37138.1553.61126.3416.24364.186.65383.6611l.69245.7943h-1.36952l-.82787-.886q-.44105-.475-.60351-.5972-.16252-.125-.34431-.1694-.18165-.047-.57642-.047h-.23213v1.6998h-1.14513zm1.14513-2.3497h.84722q.824 0 1.02906-.05.2051-.05.32111-.1722.11582-.1223.11582-.3055 0-.2057-.15473-.3305-.15051-.128-.42942-.1608-.13901-.012-.83563-.012h-.89364v1.0332zM-134.13653 1049.7845v-3.3829l-1.77432.1916v-.6888l4.7519-.5133v.6888l-1.77023.1912v3.3829l-1.20735.1304zM-125.98925 1048.3662l-1.26791.2349-.50405-.8315-2.30741.4276-.47643 1.0132-1.23642.229 2.24834-4.4884 1.23249-.2285 2.31139 3.6435zm-2.14599-1.2133l-.79541-1.3635-.77966 1.6554zM-125.36911 1043.9886l2.07065-.7984q.70041-.2701 1.06786-.334.49377-.085.8459.049.35211.1337.53583.4544.1837.318.1837.8901 0 .5027-.17218.933-.21053.5256-.60096.951-.29469.322-.7961.632-.37508.2308-1.00282.4728l-2.13188.822v-4.0717zm1.13292.2521v2.6969l.84585-.3262q.47463-.183.68511-.3031.27562-.1565.45552-.345.1835-.1902.29851-.5067.11462-.3193.11462-.7914 0-.4722-.11462-.6807-.11451-.2085-.32151-.2704-.20679-.062-.52435.011-.23731.053-.93009.3197l-.50904.1962zM-158.56276 1039.3781v-4.0717l1.16611.625v1.6027l2.28495 1.2247v-1.6026l1.16611.6251v4.0717l-1.16611-.6251v-1.7803l-2.28495-1.2247v1.7803zM-147.65563 1043.2427l-1.24264-.2758-.49396-1.0345-2.26147-.502-.46698.8212-1.21176-.2689 2.20361-3.5826 1.20787.2681zm-2.10323-2.0778l-.77956-1.6839-.76412 1.3414zM-143.41199 1042.2667l1.08258.3714q-.24912.6393-.82986.9006-.57711.259-1.46732.1613-1.10145-.1207-1.81056-.7511-.70915-.6333-.70915-1.5942 0-1.0166.7129-1.4995.71292-.4856 1.87472-.3583 1.01464.1112 1.64838.6223.37721.3024.56578.8119l-1.1052.073q-.098-.3274-.41113-.545-.30932-.2171-.75441-.266-.61487-.067-.9996.2152-.38095.2833-.38095 1.011 0 .7721.37716 1.1412.37721.369.98076.4352.4451.049.76572-.1244.32062-.173.46018-.605zM-141.32603 1043.7504v-4.0718h1.20736v4.0718zM-133.7435 1043.8164h-1.3134l-.5221-.9249h-2.39023l-.49351.9249h-1.28078l2.32902-4.0718h1.27671zm-2.22299-1.611l-.82395-1.5109-.80758 1.5109zM-131.11507 1043.2193v-4.0383l1.20737-.2811v3.3523l3.00204-.6989v.686l-4.20938.98zM-120.95227 1040.4401l-1.25889.3786-.52692-.7102-2.29104.6891-.44654 1.0031-1.22759.3692 2.11564-4.4609 1.22372-.3681zm-2.1769-.8584l-.83304-1.1685-.73079 1.6389 1.56384-.4704zM-63.894115 1041.5116v-4.0717l1.887696.4653q1.073006.2645 1.398878.4059.50075.215.838532.6067.337783.3888.337783.8748 0 .375-.195017.5825-.195017.2075-.49678.2803-.298059.071-.607988.042-.421262-.045-1.220092-.2425l-.766964-.1892v1.536l-1.176336-.29zm1.176336-3.093v1.1555l.643804.1585q.695478.1715.929952.1656.234432-.01.365616-.1098.135148-.1027.135148-.2833 0-.2223-.186584-.4127-.186583-.1904-.472936-.2971-.210816-.08-.846474-.2365l-.568264-.1401zM-58.764897 1040.8648q0-.6221.258048-1.0022.192754-.2797.52379-.473.335068-.1928.731746-.2474.527616-.075 1.217006.037 1.247801.2033 1.994956.8832.75098.6805.75098 1.6749 0 .986-.743287 1.4232-.743307.4344-1.987241.2318-1.259383-.2052-2.00269-.8789-.743266-.6766-.743266-1.6486zm1.17465.1639q0 .6916.442882 1.122.442882.4276 1.124578.5387.681676.1112 1.116844-.1711.439056-.284.439056-.9922 0-.7-.427475-1.114-.423648-.4134-1.128425-.5282-.704756-.1149-1.13616.1648-.4313.2769-.4313.9796zM-52.522723 1043.7714v-4.0717l2.402068.042q.906077.016 1.314778.1342.41256.1154.659289.4004.246816.2849.246816.6459 0 .4583-.373997.7517-.373996.2906-1.118131.3553.370138.1622.609178.3523.242784.1904.6516.6725l.690163.8064-1.36489-.023-.825091-.9005q-.439574-.4827-.601488-.6077-.162144-.128-.343152-.1753-.181152-.05-.574502-.057l-.231264-.01v1.6998l-1.141295-.021zm1.14129-2.3297l.844388.012q.821232.012 1.025596-.032.204192-.046.319997-.1666.115776-.1204.115776-.3035 0-.2057-.154368-.3332-.150336-.1305-.427968-.1687-.138816-.016-.832838-.028l-.89064-.016v1.0332zM-44.576914 1043.6263v-4.0384l1.147651-.1445v3.3524l2.853677-.3599v.6861l-4.001328.5045zM-34.609868 1041.9232l-1.272384.2531-.505814-.8242-2.315635.4606-.478138 1.02-1.24079.2469 2.256336-4.5205 1.236873-.2462zm-2.153606-1.1824l-.798221-1.3521-.78241 1.6665zM-64.113159 1046.1062l1.12392.6592q-.258624.5731-.861552.68-.599123.1058-1.523294-.2287-1.143442-.4135-1.879653-1.2324-.736189-.8217-.736189-1.7827 0-1.0165.740098-1.3099.740139-.2963 1.946222.1397 1.05338.3809 1.711296 1.0604.391597.4027.587376.9623l-1.147372-.2204q-.101622-.3535-.426836-.6543-.32112-.2994-.783216-.4665-.638291-.2308-1.037706-.05-.395506.1821-.395506.9096 0 .7722.391598 1.2415.391598.4693 1.018142.6958.462096.1675.794941.079.332867-.088.477731-.4827zM-62.040547 1044.3584l1.154674.2557v2.2053q0 .5249.043.6899.07426.2664.351072.4804.2808.2122.764621.3193.491491.1088.741148.024.249696-.09.300384-.2863.05061-.197.05061-.6804v-2.2525l1.154676.2555v2.1386q0 .7333-.0936 1.0153-.0936.282-.347184.4342-.249696.1531-.67096.1847-.42128.029-1.100076-.1213-.819176-.1814-1.244365-.4088-.421283-.2292-.667051-.4975-.245664-.2711-.323752-.5244-.113139-.375-.113139-1.0583v-2.1719zM-56.337509 1049.7337v-4.0384l1.147659.1568v3.3523l2.853689.3899v.686zM-50.828617 1050.2591v-3.3829l-1.774334-.063v-.6888l4.751909.168v.6888l-1.77025-.062v3.3829zM-47.273948 1046.2435l1.110471-.1205v2.2053q0 .525.04118.676.07114.2423.337651.3661.270144.1208.73535.07.472695-.051.7128-.2189.240192-.1704.288893-.384.04867-.2135.04867-.6969v-2.2525l1.110528-.1205v2.1387q0 .7332-.08986 1.0457-.08986.3125-.333907.5473-.240192.2344-.645293.4033-.405187.166-1.057968.237-.787824.085-1.196784-.01-.405187-.092-.64152-.2803-.236448-.1912-.311386-.419-.108864-.3381-.108864-1.0214v-2.1719zM-41.666329 1049.5421v-4.0717l2.415946-.506q.911318-.1908 1.322381-.166.41495.021.663149.25.248256.2285.248256.5896 0 .4583-.376157.837-.376157.376-1.124611.6105.372297.077.61272.2132.244224.1349.655372.5237l.694167.649-1.37281.2875-.829872-.7122q-.442109-.3823-.604973-.4705-.163008-.091-.345139-.097-.182304-.01-.577785.074l-.232704.049v1.6998l-1.147882.2404zm1.147853-2.5901l.849283-.1779q.826013-.1731 1.03153-.266.205344-.093.321869-.2397.116352-.1462.116352-.3299 0-.2056-.154944-.298-.1512-.096-.430416-.071-.13968.012-.837648.1616l-.895824.1878v1.0331zM-30.771029 1046.5092l-1.223252.4101-.48623-.7619-2.226125.7462-.459648 1.079-1.192867.3999 2.169158-4.7989 1.189037-.3986zm-2.070375-.9169l-.767376-1.2537-.752141 1.7631z" style="line-height:125%;-inkscape-font-specification:'Arial Bold'" fill="#aa0000" font-family="Arial" font-size="52.5" font-weight="700" letter-spacing="0" word-spacing="2.826" class="colorfff svgShape"></path><path d="M-101.81601 1035.1526q.057.3641-.062.6793-.11933.3135-.34634.5079-.17055.1458-.38865.2274-.21801.082-.52632.1312l-.90936.1458-.40975-2.6063.93535-.1499q.31524-.051.5524-.033.23702.016.4082.089.29261.1217.48905.3773.19791.2536.25746.6317zm-.68846.1052q-.0403-.2572-.16251-.4243-.12085-.1693-.33785-.2402-.11013-.034-.22032-.034-.10863 0-.32342.032l-.16787.027.25632 1.6314.16787-.027q.23731-.038.34488-.077.10737-.04.20386-.1153.16539-.1342.22263-.3229.057-.1904.0166-.4495zM-99.218099 1036.2049l-1.879301.1914-.26179-2.6257 1.879275-.1914.05058.5078-1.212755.1235.0453.4531 1.125506-.1148.05058.5078-1.125476.1149.0648.6489 1.212698-.1234.05047.5078zM-95.606318 1036.069l-1.743037.03-.0062-.4607.550656-.011-.02304-1.3946-.550618.011-.0062-.4306q.12612-.001.241632-.018.115326-.018.192147-.057.09054-.046.134746-.1174.04446-.072.04958-.1781l.580409-.011.03744 2.185.538362-.011.006.4608zM-92.851157 1035.4264q-.01516.3506-.319695.5613-.303552.2109-.81871.1894-.289152-.012-.493463-.081-.204285-.069-.334825-.1807-.128993-.11-.188033-.2526-.05745-.1425-.05109-.3036.006-.1985.128236-.3459.121723-.1493.408822-.2526l.000365-.011q-.223488-.116-.323712-.2815-.100203-.1656-.09156-.3781.01214-.3134.308463-.5015.295595-.188.756441-.1688.483613.021.749496.2142.26784.1922.255168.4949-.006.1878-.129447.3299-.121562.1422-.364185.2349l-.000393.011q.268992.1159.393225.2985.123991.1825.11444.4234zm-.673692-1.2487q.006-.1348-.09444-.2184-.09852-.084-.268416-.091-.06321-.01-.130357.011-.06549.012-.12096.041-.05199.028-.08716.076-.03516.046-.03804.1083-.006.1044.05124.1654.057.061.187807.125.04836.023.130964.059.08472.034.203873.077.08473-.092.122625-.1669.03804-.075.0426-.1861zm.006 1.2507q.006-.1276-.05532-.1956-.06048-.068-.253152-.1614-.05699-.029-.1656-.073-.10868-.043-.18309-.075-.07836.066-.143394.1624-.06351.095-.06852.217-.006.1842.117479.2994.126871.1135.337248.1226.05593.01.131874-.011.07626-.012.131722-.048.06472-.038.105803-.091.04093-.053.04458-.1471zM-90.246182 1035.8043l-.354315-.035-.05927.6121-.640571-.063.05972-.6122-1.258409-.1244.04836-.4974 1.364241-1.4037.682438.068-.149608 1.5417.354301.035-.04623.4798zm-.948414-.5782l.09201-.949-.847706.8742.755771.075zM-87.975014 1036.7557l-1.724151-.2602.06761-.4558.544638.082.203874-1.3796-.544683-.082.06276-.426q.124603.018.241632.024.116866 0 .19872-.024.09671-.03.152003-.094.05532-.063.07791-.1673l.574122.086-.319392 2.1614.532512.08-.06745.4557z" style="line-height:110.99997759%;-inkscape-font-specification:'sans-serif Bold'" fill="#aa0000" font-family="sans-serif" font-size="27.5" font-weight="700" letter-spacing=".02" word-spacing="-.47" class="colorfff svgShape"></path><path d="M-109.10718 1032.6548l-1.71447.3188-.0821-.4532.54158-.1005-.24969-1.3718-.54163.1008-.0772-.4235q.12397-.024.23529-.058.11105-.037.18023-.088.0819-.06.11381-.1384.0323-.078.0206-.1839l.57093-.1059.39128 2.1492.52953-.099.0822.4532zM-106.53268 1031.3608q.0288.2018-.0206.3895-.0477.1878-.16251.328-.12233.1504-.29813.2456-.17424.095-.42251.1313-.23241.034-.43429-.0008-.20016-.037-.35608-.1487-.17937-.128-.29671-.3544-.11746-.2264-.16477-.558-.049-.3438-.009-.6218.0403-.2781.18802-.509.14232-.2212.39746-.3694.25718-.1482.63201-.2028.12672-.018.28023-.024.15344-.01.19954 0l.0733.514-.0661.01q-.0502-.016-.16704-.028-.11531-.012-.25776.01-.33333.048-.49555.2404-.16211.192-.15858.4921.12222-.1003.26266-.1706.14188-.072.31391-.097.15097-.023.28454-.01.13521.016.25718.077.15858.081.26986.2401.11106.1593.1481.4172zm-.73369.5095q.0453-.068.0654-.1527.0206-.087.001-.2277-.0165-.128-.0662-.2036-.0484-.077-.11934-.1171-.0697-.04-.15696-.045-.0879-.01-.17796.01-.0763.011-.15712.041-.0807.03-.14672.066.001.018.005.058.005.041.0126.1022.0303.2158.0923.35.0633.1322.14463.1957.0562.047.12609.064.0692.012.14568.01.0571-.011.12309-.045.0657-.036.10668-.096zM-102.08069 1030.4851q.0325.3672-.10725.6735-.14036.3045-.37983.4828-.18.1336-.40307.2003-.22292.066-.53396.095l-.91708.083-.23299-2.6285.94329-.085q.31794-.029.55334.01.2353.032.40125.1169.28368.1415.46246.4101.18062.2666.21399.6479zm-.69394.057q-.023-.2595-.13369-.4345-.10887-.1769-.32086-.2628-.10725-.042-.21744-.05-.10817-.011-.32492.011l-.16932.012.14552 1.6453.16932-.012q.23933-.024.34925-.053.10956-.033.2111-.1009.17405-.1225.24394-.3068.0697-.186.0467-.4473zM-99.550112 1031.6514l-1.885538.1131-.15424-2.6344 1.885547-.1131.02955.5095-1.216737.073.0259.4547 1.129248-.068.02955.5095-1.129248.068.0381.651 1.216798-.073.02955.5096zM-95.673482 1029.4098l-1.20111.024.0075.4908 1.113486-.023.0076.5103-1.11346.023.02065 1.127-.669825.012-.05035-2.6386 1.870919-.036.0076.5104zM-93.263558 1031.5455l-1.888795-.011.01214-2.639 1.888855.011-.0015.5104-1.218876-.01-.0015.4555 1.131159.01-.0015.5104-1.131172-.01-.006.6522 1.218892.01-.0015.5104zM-90.423089 1030.8183q-.006.1912-.0879.3394-.07988.1482-.216288.2432-.157764.1118-.345236.1558-.185548.044-.469577.035l-1.13942-.036.08201-2.6377 1.013184.032q.315495.011.460359.036.14673.026.288063.1027.146728.081.21456.2125.06972.1298.06456.2946-.006.1912-.1102.3352-.104277.1422-.289275.2179l-.000377.012q.254304.059.398378.2254.145518.166.137484.4299zm-.828819-1.1115q.0015-.066-.0294-.1322-.02941-.066-.111098-.1009-.0726-.031-.183093-.036-.108691-.01-.306659-.012h-.06321l-.01652.558.105195.01q.159673.01.271872.01.11232 0 .178347-.03.09231-.037.122325-.1008.03015-.065.03303-.1498zm.131267 1.0788q.006-.1259-.0432-.1949-.04532-.071-.15984-.108-.07836-.026-.216576-.032-.138393-.01-.289197-.011l-.147032-.01-.02061.6572.04896.001q.283968.011.406746.011.123077 0 .22752-.039.10656-.041.147486-.1125.0426-.073.04548-.1688zM-88.359509 1029.9139q.006-.099-.03001-.1723-.03591-.073-.131722-.1198-.06639-.032-.157112-.043-.09063-.012-.211392-.021l-.24336-.012-.0426.7094.206496.012q.161068.01.270432.0008.10944-.011.186579-.061.07353-.051.10884-.1141.03729-.065.0438-.1767zm.938516 1.8919l-.821012-.051-.652533-1.0096-.309888-.018-.05836.9659-.668689-.041.158551-2.6341 1.127385.07q.231264.012.395757.051.164766.037.304674.1342.141876.097.21888.2443.07928.1452.06639.3575-.01652.2919-.163539.4675-.14415.1757-.400047.2826l.802035 1.1822zM-85.227434 1032.0108l-1.881018-.1735.237312-2.6281 1.881002.1735-.04608.5083-1.213844-.1118-.04092.4536 1.126518.104-.04608.5083-1.126533-.104-.05836.6495 1.213859.1118-.04608.5083zM-82.969361 1030.4392q.01214-.099-.02061-.1738-.03108-.075-.123691-.1282-.06411-.037-.154247-.053-.08943-.018-.209664-.034l-.24192-.031-.08761.7052.205315.026q.160037.021.269856.018.10959-.001.19008-.049.0764-.046.115801-.1069.04153-.062.05532-.1733zm.816555 1.9489l-.816132-.1035-.587095-1.0498-.308025-.039-.119594.9601-.664704-.084.32544-2.6184 1.120667.1425q.229824.029.391726.077.162098.047.295533.1535.13521.1064.20304.258.06972.1499.0438.361-.03607.2901-.192746.456-.154884.1661-.417177.2562l.725367 1.2318zM-79.119398 1031.5699q-.10512.6219-.51984.9279-.414414.3042-1.036782.1969-.620593-.1071-.911538-.5332-.290664-.4278-.185148-1.0497.105952-.6271.520125-.9297.414399-.3042 1.035024-.197.618912.1068.911568.5332.29296.4245.187008 1.0517zm-.991296.5067q.116804-.1022.190689-.2546.07423-.1548.111041-.3728.03969-.2342.0144-.4076-.02592-.1737-.0952-.2898-.0704-.1203-.178352-.1873-.1064-.067-.230688-.088-.126083-.023-.24624.01-.118242.026-.229536.1151-.103051.083-.187808.2463-.08271.1618-.12096.3891-.03904.2324-.01647.4055.02592.1717.0952.2898.06896.118.176497.1867.107367.069.235296.091.128008.023.252-.01.124478-.031.228384-.1207z" style="line-height:110.99997759%;-inkscape-font-specification:'sans-serif Bold'" fill="#aa0000" font-family="sans-serif" font-size="27.5" font-weight="700" letter-spacing=".12" word-spacing="1.7" class="colorfff svgShape"></path></g></g></svg></g></svg>